<svg width="218" height="48" viewBox="0 0 218 48" fill="none" xmlns="http://www.w3.org/2000/svg">
<g clip-path="url(#clip0_233_259)">
<path fill-rule="evenodd" clip-rule="evenodd" d="M37.019 17.7219C37.0144 17.4994 37.0006 17.2772 36.9776 17.0559L36.8418 15.7293L34.5203 15.9669C32.7978 16.1429 31.1789 16.8729 29.9067 18.0473C28.6344 19.2218 27.7774 20.7772 27.4644 22.4801C26.6229 21.5973 25.5903 20.9189 24.446 20.4969C23.3016 20.075 22.0759 19.9207 20.8627 20.0459L18.5411 20.2836L18.6769 21.6101C18.893 23.7211 19.9388 25.6599 21.5843 26.9998C23.2298 28.3397 25.3402 28.971 27.4512 28.7549L27.7829 28.721L28.36 34.359C28.387 34.6229 28.5177 34.8652 28.7234 35.0327C28.9291 35.2002 29.1929 35.2791 29.4568 35.2521C29.7207 35.2251 29.963 35.0944 30.1305 34.8887C30.298 34.683 30.3769 34.4192 30.3499 34.1553L29.5012 25.8641L29.8328 25.8302C31.8292 25.6261 33.6761 24.6793 35.0071 23.1774C36.3382 21.6755 37.0562 19.7283 37.019 17.7219ZM29.3333 23.8706C29.3471 22.3943 29.9045 20.975 30.899 19.884C31.8936 18.793 33.2553 18.1068 34.724 17.9568L35.0198 17.9265C35.006 19.4027 34.4486 20.822 33.4541 21.9131C32.4595 23.0041 31.0978 23.6902 29.6291 23.8403L29.3333 23.8706ZM21.0663 22.0358C22.5349 21.8852 24.0075 22.2812 25.2024 23.1481C26.3973 24.015 27.2308 25.292 27.5434 26.7348L27.2475 26.765C25.779 26.9157 24.3064 26.5196 23.1115 25.6527C21.9165 24.7858 21.0831 23.5089 20.7705 22.0661L21.0663 22.0358Z" fill="#42C92C"/>
</g>
<g clip-path="url(#clip1_233_259)">
<path fill-rule="evenodd" clip-rule="evenodd" d="M12.3653 19.4706C12.1784 19.3499 11.9864 19.2371 11.7901 19.1324L10.6143 18.5032L9.51315 20.5607C8.69589 22.0871 8.39583 23.8375 8.65802 25.5489C8.92021 27.2604 9.7305 28.8406 10.9672 30.0524C9.76476 30.2564 8.62497 30.7331 7.63525 31.4458C6.64554 32.1586 5.83219 33.0885 5.25756 34.1643L4.15639 36.2219L5.33212 36.8511C7.20305 37.8524 9.39513 38.0695 11.4261 37.4546C13.4571 36.8397 15.1606 35.4431 16.1619 33.5722L16.3193 33.2783L21.3161 35.9525C21.55 36.0777 21.824 36.1048 22.0779 36.028C22.3317 35.9511 22.5447 35.7765 22.6698 35.5427C22.795 35.3088 22.8221 35.0348 22.7453 34.7809C22.6684 34.527 22.4938 34.3141 22.26 34.1889L14.9117 30.2562L15.069 29.9622C16.0162 28.193 16.2639 26.1325 15.7632 24.1892C15.2624 22.2458 14.0496 20.5616 12.3653 19.4706ZM13.1651 29.2806C11.9489 28.4437 11.084 27.1878 10.7356 25.7533C10.3872 24.3187 10.5799 22.806 11.2767 21.5046L11.4171 21.2424C12.6332 22.0793 13.4982 23.3351 13.8465 24.7697C14.1949 26.2043 14.0022 27.7169 13.3054 29.0184L13.1651 29.2806ZM7.02116 35.1082C7.71751 33.8065 8.86926 32.8071 10.2562 32.3012C11.643 31.7954 13.1677 31.8185 14.5387 32.3661L14.3984 32.6283C13.702 33.93 12.5503 34.9294 11.1634 35.4353C9.77647 35.9412 8.25176 35.9181 6.88084 35.3704L7.02116 35.1082Z" fill="#42C92C"/>
</g>
<g clip-path="url(#clip2_233_259)">
<path d="M23.6243 13.3096L22.7195 13.5032C22.5775 13.5393 22.443 13.5207 22.316 13.4473C22.189 13.374 22.0891 13.2701 22.0163 13.1357C21.9614 13.0219 21.9505 12.8975 21.9837 12.7627C22.0173 12.6281 22.0974 12.5004 22.2242 12.3796L23.019 11.6389L22.6134 10.9012C22.5408 10.7736 22.5157 10.6393 22.5381 10.4982C22.5605 10.3572 22.6195 10.2347 22.7149 10.1307C22.8052 10.0339 22.921 9.98272 23.0623 9.97706C23.2036 9.9714 23.3436 10.0086 23.4822 10.0886L24.2375 10.5247L24.8745 9.92393C24.9813 9.82081 25.1076 9.75719 25.2534 9.73309C25.399 9.70936 25.5313 9.73184 25.6503 9.80052C25.7692 9.86919 25.8548 9.97251 25.9071 10.1105C25.9593 10.2484 25.9676 10.3897 25.9318 10.5344L25.7295 11.3861L26.4848 11.8222C26.6157 11.8977 26.7136 11.9979 26.7786 12.1227C26.8436 12.2475 26.8616 12.3759 26.8326 12.508C26.8074 12.6557 26.7396 12.7771 26.6291 12.8725C26.5188 12.9674 26.3981 13.0134 26.2668 13.0105L25.3732 12.9981L25.1425 14.0352C25.1054 14.1981 25.0363 14.3329 24.9351 14.4398C24.8339 14.5466 24.7153 14.6052 24.5795 14.6156C24.4277 14.6296 24.2879 14.5974 24.1602 14.519C24.0325 14.4406 23.9489 14.3311 23.9096 14.1903L23.6243 13.3096ZM24.099 12.4873C24.248 12.5733 24.4039 12.5945 24.5666 12.5509C24.7293 12.5073 24.8537 12.411 24.9397 12.2621C25.0257 12.1131 25.0469 11.9572 25.0033 11.7945C24.9597 11.6318 24.8634 11.5074 24.7145 11.4214C24.5655 11.3354 24.4095 11.3143 24.2466 11.3583C24.0836 11.4023 23.9592 11.4986 23.8734 11.6472C23.7877 11.7958 23.7666 11.9515 23.8102 12.1142C23.8538 12.2769 23.9498 12.4017 24.0984 12.4885M17.5487 16.9505C17.4603 17.5117 17.1501 17.9032 16.6182 18.1247C16.0863 18.3463 15.5552 18.304 15.0247 17.9977C14.7664 17.8486 14.5678 17.6346 14.429 17.3559C14.2904 17.0777 14.2309 16.7744 14.2507 16.446C13.6215 16.1187 13.2162 15.6219 13.0347 14.9556C12.853 14.2897 12.9495 13.6576 13.3242 13.0594C13.1338 12.7908 13.0378 12.489 13.0362 12.154C13.0346 11.8189 13.1242 11.4944 13.3049 11.1804C13.5927 10.6819 14.0378 10.4253 14.6401 10.4107C15.2424 10.3961 15.727 10.6258 16.0938 11.0999L16.6774 11.848C17.0056 11.5703 17.3793 11.4053 17.7987 11.3528C18.2175 11.3004 18.6152 11.3702 18.9921 11.5621L19.6632 10.3998L20.1742 10.6948L19.4884 11.8826C19.8767 12.1693 20.1332 12.5438 20.258 13.006C20.3828 13.4681 20.3495 13.9432 20.1581 14.4311L21.339 15.1129L21.0439 15.6239L19.8827 14.9535C19.6568 15.3004 19.3464 15.5544 18.9516 15.7155C18.5567 15.8766 18.1461 15.9229 17.7197 15.8543L17.5487 16.9505ZM14.3799 15.7607C14.4926 15.4793 14.6471 15.2144 14.8434 14.9659C15.0398 14.7174 15.266 14.4887 15.5221 14.2798C15.2175 14.2446 14.9173 14.1632 14.6215 14.0355C14.3256 13.9078 14.0534 13.7445 13.8049 13.5456C13.5892 13.9707 13.5372 14.3919 13.649 14.809C13.7608 15.2262 14.0044 15.5434 14.3799 15.7607ZM14.5362 13.2271C14.8888 13.4307 15.2757 13.5681 15.697 13.6394C16.1181 13.7111 16.6223 13.7229 17.2094 13.6749L15.6189 11.5571C15.3749 11.233 15.0692 11.0673 14.7018 11.06C14.3344 11.0526 14.0587 11.2084 13.8747 11.5271C13.7089 11.8143 13.6875 12.1171 13.8106 12.4355C13.9334 12.7544 14.1756 13.0182 14.5371 13.2269M15.3581 17.4203C15.6803 17.6063 16.005 17.6396 16.3322 17.52C16.6594 17.4004 16.8459 17.1778 16.8918 16.8522L17.314 14.0633C16.784 14.286 16.3434 14.5335 15.9921 14.806C15.6407 15.0785 15.3695 15.3802 15.1784 15.7113C14.9735 16.0662 14.8877 16.4024 14.921 16.7198C14.9541 17.0377 15.0998 17.2712 15.3581 17.4203ZM17.8144 15.1875C18.1377 15.2258 18.4461 15.177 18.7396 15.0411C19.0332 14.9052 19.2599 14.6986 19.42 14.4215C19.6404 14.0396 19.6982 13.6377 19.5933 13.2158C19.4884 12.7939 19.2461 12.4733 18.8666 12.2542C18.5675 12.0815 18.2554 12.0091 17.9303 12.037C17.6052 12.0649 17.3253 12.1851 17.0907 12.3976L18.038 13.6667L17.8144 15.1875Z" fill="#42C92C"/>
</g>
<path d="M51.6613 16.92V21.464H58.9893V25.688H51.6613V30.616H59.9493V35H46.1893V12.536H59.9493V16.92H51.6613ZM62.4138 26.072C62.4138 24.216 62.7872 22.5947 63.5338 21.208C64.3018 19.8213 65.3578 18.7547 66.7018 18.008C68.0672 17.2613 69.6245 16.888 71.3738 16.888C73.6138 16.888 75.4805 17.4747 76.9738 18.648C78.4885 19.8213 79.4805 21.4747 79.9498 23.608H74.1258C73.6352 22.2427 72.6858 21.56 71.2778 21.56C70.2752 21.56 69.4752 21.9547 68.8778 22.744C68.2805 23.512 67.9818 24.6213 67.9818 26.072C67.9818 27.5227 68.2805 28.6427 68.8778 29.432C69.4752 30.2 70.2752 30.584 71.2778 30.584C72.6858 30.584 73.6352 29.9013 74.1258 28.536H79.9498C79.4805 30.6267 78.4885 32.2693 76.9738 33.464C75.4592 34.6587 73.5925 35.256 71.3738 35.256C69.6245 35.256 68.0672 34.8827 66.7018 34.136C65.3578 33.3893 64.3018 32.3227 63.5338 30.936C62.7872 29.5493 62.4138 27.928 62.4138 26.072ZM91.0048 35.256C89.2555 35.256 87.6768 34.8827 86.2688 34.136C84.8822 33.3893 83.7835 32.3227 82.9728 30.936C82.1835 29.5493 81.7888 27.928 81.7888 26.072C81.7888 24.2373 82.1942 22.6267 83.0048 21.24C83.8155 19.832 84.9248 18.7547 86.3328 18.008C87.7408 17.2613 89.3195 16.888 91.0688 16.888C92.8182 16.888 94.3968 17.2613 95.8048 18.008C97.2128 18.7547 98.3222 19.832 99.1328 21.24C99.9435 22.6267 100.349 24.2373 100.349 26.072C100.349 27.9067 99.9328 29.528 99.1008 30.936C98.2902 32.3227 97.1702 33.3893 95.7408 34.136C94.3328 34.8827 92.7542 35.256 91.0048 35.256ZM91.0048 30.52C92.0502 30.52 92.9355 30.136 93.6608 29.368C94.4075 28.6 94.7808 27.5013 94.7808 26.072C94.7808 24.6427 94.4182 23.544 93.6928 22.776C92.9888 22.008 92.1142 21.624 91.0688 21.624C90.0022 21.624 89.1168 22.008 88.4128 22.776C87.7088 23.5227 87.3568 24.6213 87.3568 26.072C87.3568 27.5013 87.6982 28.6 88.3808 29.368C89.0848 30.136 89.9595 30.52 91.0048 30.52ZM119.412 12.536V16.92H113.46V35H107.988V16.92H102.036V12.536H119.412ZM127.63 20.12C128.27 19.1387 129.07 18.3707 130.03 17.816C130.99 17.24 132.057 16.952 133.23 16.952V22.744H131.726C130.361 22.744 129.337 23.0427 128.654 23.64C127.971 24.216 127.63 25.24 127.63 26.712V35H122.158V17.144H127.63V20.12ZM134.758 26.04C134.758 24.2053 135.099 22.5947 135.782 21.208C136.486 19.8213 137.435 18.7547 138.63 18.008C139.824 17.2613 141.158 16.888 142.63 16.888C143.888 16.888 144.987 17.144 145.926 17.656C146.886 18.168 147.622 18.84 148.134 19.672V17.144H153.606V35H148.134V32.472C147.6 33.304 146.854 33.976 145.894 34.488C144.955 35 143.856 35.256 142.598 35.256C141.147 35.256 139.824 34.8827 138.63 34.136C137.435 33.368 136.486 32.2907 135.782 30.904C135.099 29.496 134.758 27.8747 134.758 26.04ZM148.134 26.072C148.134 24.7067 147.75 23.6293 146.982 22.84C146.235 22.0507 145.318 21.656 144.23 21.656C143.142 21.656 142.214 22.0507 141.446 22.84C140.699 23.608 140.326 24.6747 140.326 26.04C140.326 27.4053 140.699 28.4933 141.446 29.304C142.214 30.0933 143.142 30.488 144.23 30.488C145.318 30.488 146.235 30.0933 146.982 29.304C147.75 28.5147 148.134 27.4373 148.134 26.072ZM156.476 26.072C156.476 24.216 156.85 22.5947 157.596 21.208C158.364 19.8213 159.42 18.7547 160.764 18.008C162.13 17.2613 163.687 16.888 165.436 16.888C167.676 16.888 169.543 17.4747 171.036 18.648C172.551 19.8213 173.543 21.4747 174.012 23.608H168.188C167.698 22.2427 166.748 21.56 165.34 21.56C164.338 21.56 163.538 21.9547 162.94 22.744C162.343 23.512 162.044 24.6213 162.044 26.072C162.044 27.5227 162.343 28.6427 162.94 29.432C163.538 30.2 164.338 30.584 165.34 30.584C166.748 30.584 167.698 29.9013 168.188 28.536H174.012C173.543 30.6267 172.551 32.2693 171.036 33.464C169.522 34.6587 167.655 35.256 165.436 35.256C163.687 35.256 162.13 34.8827 160.764 34.136C159.42 33.3893 158.364 32.3227 157.596 30.936C156.85 29.5493 156.476 27.928 156.476 26.072ZM187.851 35L182.411 27.512V35H176.939V11.32H182.411V24.408L187.819 17.144H194.571L187.147 26.104L194.635 35H187.851Z" fill="black"/>
<defs>
<clipPath id="clip0_233_259">
<rect width="21.3364" height="21.3364" fill="white" transform="translate(16.8071 16.4395) rotate(-5.8446)"/>
</clipPath>
<clipPath id="clip1_233_259">
<rect width="21.3364" height="21.3364" fill="white" transform="translate(0 35.5098) rotate(-61.8446)"/>
</clipPath>
<clipPath id="clip2_233_259">
<rect width="16.0023" height="16.0023" fill="white" transform="translate(16.0515 2.42236) rotate(30)"/>
</clipPath>
</defs>
</svg>
