<svg width="630" height="733" viewBox="0 0 630 733" fill="none" xmlns="http://www.w3.org/2000/svg">
<path opacity="0.7" d="M16.3562 228.367C16.3562 228.367 -29.7573 347.455 35.0464 467.37C99.8502 587.285 233.328 650.633 340.16 704.802C446.992 758.97 557.925 732.589 610.638 643.868C663.351 555.148 591.055 491.816 590.956 365.301C590.857 238.787 609.894 205.294 541.336 98.412C472.777 -8.46947 304.715 -32.1382 177.621 47.138C50.5279 126.414 16.3562 228.367 16.3562 228.367Z" fill="white"/>
<path d="M36.5186 213.2C84.1869 125.438 204.102 22.9897 368.625 65.6629C533.149 108.336 644.281 198.611 626.07 355.675C607.86 512.739 512.143 643.24 305.922 647.06C99.7014 650.881 -68.0142 405.643 36.5186 213.2Z" fill="#92E3A9"/>
<path opacity="0.7" d="M36.5186 213.2C84.1869 125.438 204.102 22.9897 368.625 65.6629C533.149 108.336 644.281 198.611 626.07 355.675C607.86 512.739 512.143 643.24 305.922 647.06C99.7014 650.881 -68.0142 405.643 36.5186 213.2Z" fill="white"/>
</svg>
