<svg width="235" height="228" viewBox="0 0 235 228" fill="none" xmlns="http://www.w3.org/2000/svg">
<g clip-path="url(#clip0_171_1816)">
<path fill-rule="evenodd" clip-rule="evenodd" d="M217.294 78.5729C217.268 77.3365 217.192 76.1018 217.064 74.8718L216.309 67.5L203.408 68.8205C193.836 69.7987 184.84 73.8554 177.77 80.3816C170.7 86.9078 165.938 95.5513 164.199 105.014C159.522 100.109 153.784 96.3387 147.425 93.994C141.066 91.6493 134.254 90.7919 127.513 91.4877L114.612 92.8082L115.366 100.18C116.567 111.911 122.379 122.684 131.523 130.13C140.667 137.576 152.394 141.085 164.125 139.884L165.968 139.695L169.175 171.026C169.326 172.492 170.052 173.839 171.195 174.77C172.338 175.7 173.804 176.139 175.27 175.989C176.737 175.839 178.083 175.112 179.014 173.969C179.945 172.826 180.383 171.36 180.233 169.894L175.517 123.819L177.36 123.631C188.454 122.497 198.717 117.235 206.114 108.889C213.51 100.544 217.501 89.7228 217.294 78.5729ZM174.584 112.741C174.661 104.538 177.758 96.6507 183.285 90.5879C188.811 84.5251 196.379 80.7122 204.54 79.8784L206.184 79.7101C206.107 87.9134 203.01 95.8006 197.483 101.863C191.957 107.926 184.389 111.739 176.228 112.573L174.584 112.741ZM128.644 102.546C136.805 101.709 144.988 103.909 151.629 108.727C158.269 113.544 162.9 120.64 164.637 128.658L162.993 128.826C154.833 129.663 146.65 127.462 140.009 122.645C133.369 117.828 128.738 110.731 127.001 102.714L128.644 102.546Z" fill="#42C92C"/>
</g>
<g clip-path="url(#clip1_171_1816)">
<path fill-rule="evenodd" clip-rule="evenodd" d="M68.7146 82.9217C67.6756 82.2512 66.6091 81.6243 65.5178 81.0427L58.9842 77.546L52.865 88.9797C48.3235 97.462 46.656 107.189 48.113 116.699C49.57 126.21 54.0728 134.991 60.9454 141.725C54.2632 142.859 47.9293 145.508 42.4295 149.469C36.9296 153.429 32.4098 158.597 29.2166 164.575L23.0974 176.009L29.6309 179.506C40.0277 185.07 52.2091 186.276 63.4954 182.859C74.7816 179.442 84.2481 171.682 89.8125 161.285L90.6866 159.651L118.454 174.512C119.754 175.208 121.276 175.359 122.687 174.932C124.098 174.504 125.281 173.534 125.977 172.235C126.672 170.935 126.823 169.412 126.396 168.002C125.969 166.591 124.999 165.408 123.699 164.712L82.8646 142.858L83.7388 141.224C89.0024 131.393 90.3793 119.942 87.5964 109.143C84.8136 98.344 78.0742 88.985 68.7146 82.9217ZM73.1587 137.436C66.4007 132.785 61.5941 125.807 59.6582 117.835C57.7223 109.863 58.7929 101.457 62.6653 94.2248L63.4451 92.7678C70.2031 97.4185 75.0097 104.397 76.9456 112.369C78.8815 120.341 77.8109 128.747 73.9385 135.979L73.1587 137.436ZM39.0169 169.82C42.8866 162.587 49.2869 157.033 56.9939 154.222C64.7008 151.411 73.1736 151.539 80.7919 154.583L80.0121 156.04C76.1425 163.273 69.7422 168.827 62.0352 171.638C54.3282 174.449 45.8554 174.321 38.2372 171.277L39.0169 169.82Z" fill="#42C92C"/>
</g>
<path d="M136.746 60.4999L131.718 61.5759C130.929 61.7764 130.182 61.6729 129.476 61.2653C128.77 60.8578 128.215 60.2805 127.81 59.5336C127.505 58.9011 127.445 58.2102 127.629 57.461C127.816 56.713 128.261 56.0033 128.966 55.3317L133.383 51.2161L131.129 47.1168C130.725 46.4075 130.586 45.661 130.71 44.8772C130.835 44.0934 131.162 43.4125 131.693 42.8346C132.194 42.297 132.838 42.0125 133.623 41.981C134.409 41.9496 135.186 42.1562 135.957 42.6008L140.154 45.024L143.694 41.6858C144.287 41.1127 144.989 40.7592 145.799 40.6253C146.609 40.4934 147.344 40.6184 148.005 41C148.666 41.3816 149.141 41.9558 149.432 42.7224C149.722 43.4891 149.768 44.2742 149.569 45.0779L148.445 49.8112L152.642 52.2344C153.37 52.6543 153.914 53.211 154.275 53.9044C154.636 54.5978 154.736 55.3115 154.575 56.0455C154.435 56.866 154.058 57.5411 153.444 58.0709C152.831 58.5985 152.16 58.8543 151.431 58.8382L146.465 58.7692L145.183 64.5321C144.977 65.4372 144.593 66.1866 144.03 66.7803C143.468 67.374 142.809 67.6997 142.054 67.7573C141.211 67.835 140.434 67.6562 139.724 67.2207C139.015 66.7852 138.55 66.1764 138.332 65.3941L136.746 60.4999ZM139.384 55.9306C140.212 56.4085 141.078 56.5264 141.983 56.2841C142.887 56.0417 143.578 55.5067 144.056 54.6788C144.534 53.8509 144.652 52.9848 144.41 52.0805C144.167 51.1762 143.632 50.4851 142.804 50.0071C141.976 49.5291 141.11 49.4124 140.204 49.6568C139.299 49.9013 138.608 50.4364 138.131 51.2621C137.654 52.0878 137.537 52.9528 137.779 53.8571C138.021 54.7614 138.555 55.4547 139.381 55.937M102.984 80.7323C102.493 83.8513 100.769 86.0265 97.8135 87.2579C94.8578 88.4892 91.906 88.254 88.9582 86.552C87.5228 85.7233 86.4194 84.5344 85.6481 82.9852C84.8777 81.4394 84.5473 79.7541 84.6568 77.9291C81.1605 76.1102 78.9081 73.3494 77.8997 69.6468C76.8901 65.9464 77.4263 62.4339 79.5083 59.1094C78.4502 57.6172 77.9168 55.9401 77.9079 54.0782C77.8991 52.2162 78.3968 50.4129 79.4013 48.6682C81.0007 45.898 83.4739 44.4722 86.8209 44.3909C90.1679 44.3096 92.8608 45.5862 94.8994 48.2207L98.1425 52.3777C99.9659 50.8349 102.043 49.9177 104.373 49.626C106.7 49.3351 108.911 49.7229 111.005 50.7893L114.734 44.3299L117.574 45.9695L113.763 52.57C115.921 54.1636 117.346 56.2445 118.04 58.8127C118.733 61.3808 118.548 64.0207 117.485 66.7324L124.047 70.521L122.407 73.3608L115.954 69.6352C114.699 71.5629 112.974 72.9744 110.78 73.8697C108.586 74.765 106.304 75.022 103.934 74.6407L102.984 80.7323ZM85.3751 74.121C86.0012 72.5573 86.8599 71.0849 87.9509 69.704C89.042 68.3231 90.2991 67.0523 91.7222 65.8916C90.0297 65.6959 88.3614 65.2433 86.7175 64.5337C85.0735 63.8242 83.5609 62.9167 82.1797 61.8112C80.9811 64.1739 80.6923 66.5144 81.3134 68.8325C81.9346 71.1506 83.2885 72.9135 85.3751 74.121ZM86.2434 60.0416C88.2029 61.1729 90.3533 61.9366 92.6944 62.3328C95.0344 62.7311 97.8358 62.7969 101.099 62.5301L92.2602 50.7614C90.9042 48.9603 89.2054 48.0394 87.1638 47.9987C85.1222 47.9581 83.5901 48.8234 82.5675 50.5946C81.6461 52.1905 81.5274 53.8732 82.2113 55.6429C82.8941 57.4147 84.2398 58.8805 86.2485 60.0402M90.8108 83.3432C92.6013 84.377 94.4057 84.5617 96.224 83.8972C98.0423 83.2328 99.0788 81.9958 99.3335 80.1862L101.68 64.6882C98.7348 65.9257 96.2861 67.3015 94.3338 68.8155C92.3815 70.3296 90.8743 72.0065 89.8122 73.8462C88.6734 75.8185 88.1966 77.6867 88.3818 79.4508C88.5657 81.217 89.3754 82.5145 90.8108 83.3432ZM104.46 70.9356C106.257 71.1486 107.971 70.8774 109.602 70.1221C111.233 69.3668 112.494 68.219 113.383 66.6788C114.608 64.5567 114.929 62.3233 114.346 59.9787C113.763 57.6341 112.417 55.8529 110.308 54.6351C108.645 53.6755 106.911 53.2731 105.105 53.4281C103.298 53.583 101.743 54.2511 100.439 55.4322L105.703 62.4845L104.46 70.9356Z" fill="#42C92C"/>
<defs>
<clipPath id="clip0_171_1816">
<rect width="118.567" height="118.567" fill="white" transform="translate(104.976 71.4473) rotate(-5.8446)"/>
</clipPath>
<clipPath id="clip1_171_1816">
<rect width="118.567" height="118.567" fill="white" transform="translate(0 172.053) rotate(-61.8446)"/>
</clipPath>
</defs>
</svg>
