<svg width="1512" height="1448" viewBox="0 0 1512 1448" fill="none" xmlns="http://www.w3.org/2000/svg">
<g filter="url(#filter0_f_168_360)">
<ellipse cx="753" cy="702.5" rx="603" ry="572.5" fill="#D4FFD6"/>
</g>
<g filter="url(#filter1_f_168_360)">
<rect x="-99" y="899" width="1755" height="287" fill="#92E3A9"/>
</g>
<g filter="url(#filter2_f_168_360)">
<path d="M36.3623 597.332C617.978 794.731 925.418 802.956 1487.88 597.332C2050.35 391.708 1488.4 1002 1488.4 1002H36.8783C36.8783 1002 -545.254 399.933 36.3623 597.332Z" fill="#92E3A9"/>
</g>
<g filter="url(#filter3_f_168_360)">
<rect x="-120" y="762" width="1755" height="287" fill="#92E3A9"/>
</g>
<path opacity="0.7" d="M452.356 498.367C452.356 498.367 406.243 617.455 471.046 737.37C535.85 857.285 669.328 920.633 776.16 974.802C882.992 1028.97 993.925 1002.59 1046.64 913.868C1099.35 825.148 1027.06 761.816 1026.96 635.301C1026.86 508.787 1045.89 475.294 977.336 368.412C908.777 261.531 740.715 237.862 613.621 317.138C486.528 396.414 452.356 498.367 452.356 498.367Z" fill="white"/>
<path d="M472.519 483.2C520.187 395.438 640.102 292.99 804.625 335.663C969.149 378.336 1080.28 468.611 1062.07 625.675C1043.86 782.739 948.143 913.24 741.922 917.06C535.701 920.881 367.986 675.643 472.519 483.2Z" fill="#92E3A9"/>
<path opacity="0.7" d="M472.519 483.2C520.187 395.438 640.102 292.99 804.625 335.663C969.149 378.336 1080.28 468.611 1062.07 625.675C1043.86 782.739 948.143 913.24 741.922 917.06C535.701 920.881 367.986 675.643 472.519 483.2Z" fill="white"/>
<mask id="mask0_168_360" style="mask-type:luminance" maskUnits="userSpaceOnUse" x="668" y="446" width="290" height="61">
<path d="M719.725 496.978C719.725 496.978 742.253 471.142 775.118 471.142C775.118 471.142 776.21 451.096 798.638 446.762C821.066 442.429 825.416 462.459 825.416 462.459C825.416 462.459 841.956 453.66 864.252 462.459C886.548 471.258 881.983 496.895 881.983 496.895C881.983 496.895 946.191 494.811 957.207 506.571H668.667C668.667 506.571 674.489 492.181 719.725 496.978Z" fill="white"/>
</mask>
<g mask="url(#mask0_168_360)">
<path opacity="0.5" d="M719.725 496.978C719.725 496.978 742.253 471.142 775.118 471.142C775.118 471.142 776.21 451.096 798.638 446.762C821.066 442.429 825.416 462.459 825.416 462.459C825.416 462.459 841.956 453.66 864.252 462.459C886.548 471.258 881.983 496.895 881.983 496.895C881.983 496.895 946.191 494.811 957.207 506.571H668.667C668.667 506.571 674.489 492.181 719.725 496.978Z" stroke="black" stroke-linecap="round" stroke-linejoin="round"/>
</g>
<path d="M719.725 496.978C719.725 496.978 742.253 471.142 775.118 471.142C775.118 471.142 776.21 451.096 798.638 446.762C821.066 442.429 825.416 462.459 825.416 462.459C825.416 462.459 841.956 453.66 864.252 462.459C886.548 471.258 881.983 496.895 881.983 496.895C881.983 496.895 946.191 494.811 957.207 506.571H668.667C668.667 506.571 674.489 492.181 719.725 496.978Z" stroke="black" stroke-linecap="round" stroke-linejoin="round"/>
<mask id="mask1_168_360" style="mask-type:luminance" maskUnits="userSpaceOnUse" x="716" y="303" width="231" height="49">
<path d="M905.883 343.801C905.883 343.801 887.904 323.208 861.705 323.208C861.705 323.208 860.828 307.214 842.948 303.757C825.068 300.3 821.579 316.278 821.579 316.278C821.579 316.278 808.347 309.265 790.616 316.278C772.885 323.291 776.457 343.751 776.457 343.751C776.457 343.751 725.183 342.097 716.467 351.459H946.604C946.604 351.459 941.957 339.98 905.883 343.801Z" fill="white"/>
</mask>
<g mask="url(#mask1_168_360)">
<path opacity="0.5" d="M905.883 343.801C905.883 343.801 887.904 323.208 861.705 323.208C861.705 323.208 860.828 307.214 842.948 303.757C825.068 300.3 821.579 316.278 821.579 316.278C821.579 316.278 808.347 309.265 790.616 316.278C772.885 323.291 776.457 343.751 776.457 343.751C776.457 343.751 725.183 342.097 716.467 351.459H946.604C946.604 351.459 941.957 339.98 905.883 343.801Z" stroke="black" stroke-linecap="round" stroke-linejoin="round"/>
</g>
<path d="M905.883 343.801C905.883 343.801 887.904 323.208 861.705 323.208C861.705 323.208 860.828 307.214 842.948 303.757C825.068 300.3 821.579 316.278 821.579 316.278C821.579 316.278 808.347 309.265 790.616 316.278C772.885 323.291 776.457 343.751 776.457 343.751C776.457 343.751 725.183 342.097 716.467 351.459H946.604C946.604 351.459 941.957 339.98 905.883 343.801Z" stroke="black" stroke-linecap="round" stroke-linejoin="round"/>
<mask id="mask2_168_360" style="mask-type:luminance" maskUnits="userSpaceOnUse" x="464" y="391" width="138" height="29">
<path d="M488.695 415.369C488.695 415.369 499.363 403.13 514.944 403.13C515.237 400.233 516.493 397.518 518.511 395.419C520.529 393.321 523.192 391.959 526.075 391.552C536.694 389.501 538.761 398.978 538.761 398.978C541.664 397.722 544.794 397.074 547.957 397.074C551.121 397.074 554.251 397.722 557.154 398.978C567.706 403.146 565.573 415.303 565.573 415.303C565.573 415.303 595.973 414.311 601.2 419.885H464.513C464.513 419.885 467.259 413.087 488.695 415.369Z" fill="white"/>
</mask>
<g mask="url(#mask2_168_360)">
<path opacity="0.5" d="M488.695 415.369C488.695 415.369 499.363 403.13 514.944 403.13C515.237 400.233 516.493 397.518 518.511 395.419C520.529 393.321 523.192 391.959 526.075 391.552C536.694 389.501 538.761 398.978 538.761 398.978C541.664 397.722 544.794 397.074 547.957 397.074C551.121 397.074 554.251 397.722 557.154 398.978C567.706 403.146 565.573 415.303 565.573 415.303C565.573 415.303 595.973 414.311 601.2 419.885H464.513C464.513 419.885 467.259 413.087 488.695 415.369Z" stroke="black" stroke-linecap="round" stroke-linejoin="round"/>
</g>
<path d="M488.695 415.369C488.695 415.369 499.363 403.13 514.944 403.13C515.237 400.233 516.493 397.518 518.511 395.419C520.529 393.321 523.192 391.959 526.075 391.552C536.694 389.501 538.761 398.978 538.761 398.978C541.664 397.722 544.794 397.074 547.957 397.074C551.121 397.074 554.251 397.722 557.154 398.978C567.706 403.146 565.573 415.303 565.573 415.303C565.573 415.303 595.973 414.311 601.2 419.885H464.513C464.513 419.885 467.259 413.087 488.695 415.369Z" stroke="black" stroke-linecap="round" stroke-linejoin="round"/>
<mask id="mask3_168_360" style="mask-type:luminance" maskUnits="userSpaceOnUse" x="627" y="674" width="138" height="29">
<path d="M652.143 698.22C652.143 698.22 662.811 685.98 678.392 685.98C678.682 683.083 679.937 680.366 681.956 678.267C683.974 676.167 686.639 674.806 689.523 674.402C700.142 672.384 702.226 681.812 702.226 681.812C705.129 680.556 708.259 679.908 711.422 679.908C714.586 679.908 717.715 680.556 720.618 681.812C731.171 685.964 729.037 698.137 729.037 698.137C729.037 698.137 759.438 697.145 764.665 702.719H627.961C627.961 702.719 630.707 695.937 652.143 698.22Z" fill="white"/>
</mask>
<g mask="url(#mask3_168_360)">
<path opacity="0.5" d="M652.143 698.22C652.143 698.22 662.811 685.98 678.392 685.98C678.682 683.083 679.937 680.366 681.956 678.267C683.974 676.167 686.639 674.806 689.523 674.402C700.142 672.384 702.226 681.812 702.226 681.812C705.129 680.556 708.259 679.908 711.422 679.908C714.586 679.908 717.715 680.556 720.618 681.812C731.171 685.964 729.037 698.137 729.037 698.137C729.037 698.137 759.438 697.145 764.665 702.719H627.961C627.961 702.719 630.707 695.937 652.143 698.22Z" stroke="black" stroke-linecap="round" stroke-linejoin="round"/>
</g>
<path d="M652.143 698.22C652.143 698.22 662.811 685.98 678.392 685.98C678.682 683.083 679.937 680.366 681.956 678.267C683.974 676.167 686.639 674.806 689.523 674.402C700.142 672.384 702.226 681.812 702.226 681.812C705.129 680.556 708.259 679.908 711.422 679.908C714.586 679.908 717.715 680.556 720.618 681.812C731.171 685.964 729.037 698.137 729.037 698.137C729.037 698.137 759.438 697.145 764.665 702.719H627.961C627.961 702.719 630.707 695.937 652.143 698.22Z" stroke="black" stroke-linecap="round" stroke-linejoin="round"/>
<path d="M529.234 543.074L529.069 517.272C529.007 516.382 528.611 515.547 527.958 514.938C527.306 514.329 526.446 513.99 525.554 513.99C524.661 513.99 523.802 514.329 523.149 514.938C522.497 515.547 522.1 516.382 522.039 517.272V525.724" stroke="black" stroke-linecap="round" stroke-linejoin="round"/>
<path d="M521.841 549.972L521.775 559.449" stroke="black" stroke-linecap="round" stroke-linejoin="round"/>
<path d="M530.706 772.269L529.399 569.175" stroke="black" stroke-linecap="round" stroke-linejoin="round"/>
<path d="M521.659 577.296L520.418 772.269" stroke="black" stroke-linecap="round" stroke-linejoin="round"/>
<path d="M614.564 561.07L539.456 545.043L535.321 550.865L532.327 550.551L500.554 474.467C500.337 473.944 499.928 473.525 499.411 473.296C498.894 473.068 498.308 473.047 497.776 473.238C497.244 473.43 496.806 473.819 496.553 474.325C496.301 474.831 496.252 475.415 496.419 475.955L518.384 549.558L525.479 550.369L526.604 553.065L476.256 618.514C475.948 618.96 475.815 619.504 475.884 620.042C475.952 620.58 476.217 621.073 476.627 621.428C477.037 621.783 477.564 621.974 478.106 621.964C478.648 621.954 479.167 621.744 479.564 621.375L532.592 565.801L529.78 559.185L531.649 556.77L613.902 565.437C614.189 565.48 614.481 565.467 614.763 565.397C615.045 565.328 615.31 565.203 615.543 565.031C615.776 564.859 615.974 564.643 616.124 564.395C616.273 564.146 616.373 563.871 616.416 563.584C616.46 563.298 616.446 563.005 616.377 562.724C616.307 562.442 616.183 562.177 616.011 561.944C615.839 561.71 615.623 561.513 615.374 561.363C615.126 561.213 614.851 561.114 614.564 561.07Z" stroke="black" stroke-linecap="round" stroke-linejoin="round"/>
<path d="M530.706 555.331C531.894 555.331 532.856 554.368 532.856 553.18C532.856 551.993 531.894 551.03 530.706 551.03C529.519 551.03 528.556 551.993 528.556 553.18C528.556 554.368 529.519 555.331 530.706 555.331Z" stroke="black" stroke-linecap="round" stroke-linejoin="round"/>
<path d="M598.388 632.275L598.256 611.848C598.256 611.111 597.963 610.404 597.442 609.883C596.921 609.362 596.214 609.069 595.477 609.069C594.74 609.069 594.033 609.362 593.512 609.883C592.991 610.404 592.698 611.111 592.698 611.848V618.547" stroke="black" stroke-linecap="round" stroke-linejoin="round"/>
<path d="M592.533 637.733L592.483 645.209" stroke="black" stroke-linecap="round" stroke-linejoin="round"/>
<path d="M599.545 813.57L598.52 652.917" stroke="black" stroke-linecap="round" stroke-linejoin="round"/>
<path d="M592.4 659.334L591.408 813.57" stroke="black" stroke-linecap="round" stroke-linejoin="round"/>
<path d="M665.937 646.549L606.509 633.846L603.201 638.461L600.819 638.213L575.695 578.007C575.618 577.789 575.496 577.59 575.337 577.422C575.177 577.254 574.985 577.122 574.771 577.033C574.558 576.944 574.328 576.901 574.097 576.906C573.866 576.912 573.638 576.966 573.429 577.064C573.031 577.233 572.709 577.542 572.524 577.932C572.338 578.322 572.301 578.766 572.42 579.182L589.804 637.402L595.411 638.047L596.304 640.181L556.442 691.918C556.142 692.269 555.993 692.725 556.029 693.186C556.065 693.646 556.282 694.074 556.633 694.374C556.984 694.675 557.44 694.824 557.9 694.788C558.361 694.752 558.788 694.535 559.089 694.184L601.018 650.221L598.801 645.027L600.273 643.109L665.342 649.956C665.571 649.994 665.805 649.983 666.029 649.924C666.253 649.865 666.463 649.76 666.644 649.614C666.825 649.469 666.973 649.288 667.079 649.082C667.186 648.876 667.247 648.65 667.26 648.418C667.304 647.999 667.194 647.578 666.951 647.235C666.707 646.891 666.347 646.647 665.937 646.549Z" stroke="black" stroke-linecap="round" stroke-linejoin="round"/>
<path d="M601.332 640.264C601.332 640.591 601.235 640.911 601.053 641.183C600.871 641.455 600.613 641.667 600.311 641.792C600.009 641.917 599.676 641.95 599.355 641.886C599.034 641.822 598.74 641.665 598.508 641.433C598.277 641.202 598.12 640.907 598.056 640.587C597.992 640.266 598.025 639.933 598.15 639.631C598.275 639.329 598.487 639.07 598.759 638.889C599.031 638.707 599.351 638.61 599.678 638.61C600.117 638.61 600.537 638.784 600.847 639.094C601.158 639.404 601.332 639.825 601.332 640.264Z" stroke="black" stroke-linecap="round" stroke-linejoin="round"/>
<path d="M961.226 543.074L961.391 517.272C961.452 516.382 961.849 515.547 962.501 514.938C963.154 514.329 964.013 513.99 964.906 513.99C965.798 513.99 966.658 514.329 967.31 514.938C967.962 515.547 968.359 516.382 968.42 517.272V525.724" stroke="black" stroke-linecap="round" stroke-linejoin="round"/>
<path d="M968.619 549.972L968.685 559.449" stroke="black" stroke-linecap="round" stroke-linejoin="round"/>
<path d="M959.754 772.269L961.061 569.175" stroke="black" stroke-linecap="round" stroke-linejoin="round"/>
<path d="M968.801 577.296L970.042 772.269" stroke="black" stroke-linecap="round" stroke-linejoin="round"/>
<path d="M875.896 561.07L951.004 545.043L955.139 550.865L958.133 550.551L989.906 474.467C990.122 473.944 990.532 473.525 991.049 473.296C991.566 473.068 992.152 473.047 992.684 473.238C993.216 473.43 993.654 473.819 993.907 474.325C994.159 474.831 994.208 475.415 994.041 475.955L972.076 549.558L964.98 550.369L963.856 553.065L1014.25 618.481C1014.56 618.927 1014.69 619.471 1014.63 620.009C1014.56 620.547 1014.29 621.04 1013.88 621.395C1013.47 621.75 1012.95 621.941 1012.4 621.931C1011.86 621.921 1011.34 621.711 1010.95 621.342L957.918 565.768L960.73 559.152L958.861 556.737L876.607 565.404C876.05 565.46 875.492 565.303 875.047 564.962C874.602 564.622 874.304 564.124 874.213 563.571C874.122 563.019 874.246 562.452 874.559 561.987C874.871 561.522 875.35 561.194 875.896 561.07Z" stroke="black" stroke-linecap="round" stroke-linejoin="round"/>
<path d="M959.754 555.331C960.941 555.331 961.904 554.368 961.904 553.18C961.904 551.993 960.941 551.03 959.754 551.03C958.566 551.03 957.604 551.993 957.604 553.18C957.604 554.368 958.566 555.331 959.754 555.331Z" stroke="black" stroke-linecap="round" stroke-linejoin="round"/>
<path d="M892.072 632.275L892.205 611.848C892.205 611.111 892.497 610.404 893.018 609.883C893.54 609.362 894.246 609.069 894.983 609.069C895.72 609.069 896.427 609.362 896.948 609.883C897.469 610.404 897.762 611.111 897.762 611.848V618.547" stroke="black" stroke-linecap="round" stroke-linejoin="round"/>
<path d="M897.927 637.733L897.977 645.209" stroke="black" stroke-linecap="round" stroke-linejoin="round"/>
<path d="M890.914 813.57L891.94 652.917" stroke="black" stroke-linecap="round" stroke-linejoin="round"/>
<path d="M898.06 659.334L899.052 813.57" stroke="black" stroke-linecap="round" stroke-linejoin="round"/>
<path d="M824.523 646.549L883.951 633.846L887.259 638.461L889.641 638.213L914.765 578.007C914.842 577.789 914.965 577.59 915.124 577.422C915.283 577.254 915.475 577.122 915.689 577.033C915.902 576.944 916.132 576.901 916.363 576.906C916.595 576.912 916.822 576.966 917.031 577.064C917.429 577.233 917.751 577.542 917.937 577.932C918.123 578.322 918.159 578.766 918.04 579.182L900.657 637.402L895.049 638.047L894.156 640.181L934.018 691.918C934.318 692.269 934.467 692.725 934.431 693.186C934.396 693.646 934.178 694.074 933.828 694.374C933.477 694.675 933.021 694.824 932.56 694.788C932.099 694.752 931.672 694.535 931.371 694.184L889.442 650.221L891.659 645.027L890.187 643.109L825.118 649.956C824.89 649.994 824.655 649.983 824.431 649.924C824.207 649.865 823.997 649.76 823.817 649.614C823.636 649.469 823.487 649.288 823.381 649.082C823.275 648.876 823.213 648.65 823.2 648.418C823.156 647.999 823.266 647.578 823.51 647.235C823.753 646.891 824.113 646.647 824.523 646.549Z" stroke="black" stroke-linecap="round" stroke-linejoin="round"/>
<path d="M889.21 640.264C889.21 640.591 889.307 640.911 889.489 641.183C889.671 641.455 889.929 641.667 890.232 641.792C890.534 641.917 890.866 641.95 891.187 641.886C891.508 641.822 891.803 641.665 892.034 641.433C892.265 641.202 892.423 640.907 892.487 640.587C892.551 640.266 892.518 639.933 892.393 639.631C892.267 639.329 892.055 639.07 891.783 638.889C891.511 638.707 891.192 638.61 890.864 638.61C890.426 638.61 890.005 638.784 889.695 639.094C889.385 639.404 889.21 639.825 889.21 640.264Z" stroke="black" stroke-linecap="round" stroke-linejoin="round"/>
<path d="M391.009 748.154C391.009 748.154 394.218 756.623 404.241 769.656C417.192 786.626 441.671 811.32 485.552 835.006C562.959 876.852 611.951 946.386 611.951 946.386L656.989 802.835C656.989 802.835 636.959 801.38 608.775 781.333C589.539 767.82 566.598 745.623 543.673 709.533C486.974 620.366 427.662 601.031 427.662 601.031" fill="white"/>
<mask id="mask4_168_360" style="mask-type:luminance" maskUnits="userSpaceOnUse" x="391" y="601" width="266" height="346">
<path d="M391.009 748.154C391.009 748.154 394.218 756.623 404.241 769.656C417.192 786.626 441.671 811.32 485.552 835.006C562.959 876.852 611.951 946.386 611.951 946.386L656.989 802.835C656.989 802.835 636.959 801.38 608.775 781.333C589.539 767.82 566.598 745.623 543.673 709.533C486.974 620.366 427.662 601.031 427.662 601.031" fill="white"/>
</mask>
<g mask="url(#mask4_168_360)">
<path opacity="0.4" d="M404.192 769.656C417.192 786.626 441.671 811.321 485.552 835.006C562.959 876.852 611.951 946.386 611.951 946.386L656.989 802.836C656.989 802.836 636.959 801.38 608.775 781.334C585.702 780.705 537.868 796.368 513.438 819.971C513.356 820.004 456.921 791.39 404.192 769.656Z" fill="#92E3A9"/>
<path d="M553.118 800.553C553.118 800.553 580.657 824.337 596.122 825.115" stroke="black" stroke-linecap="round" stroke-linejoin="round"/>
<path d="M472.32 828.125C491.953 837.669 520.749 848.337 531.219 853.795" stroke="black" stroke-linecap="round" stroke-linejoin="round"/>
<path d="M547.61 715.967C552.935 726.972 559.217 737.488 566.383 747.393" stroke="black" stroke-linecap="round" stroke-linejoin="round"/>
</g>
<path d="M391.009 748.154C391.009 748.154 394.218 756.623 404.241 769.656C417.192 786.626 441.671 811.32 485.552 835.006C562.959 876.852 611.951 946.386 611.951 946.386L656.989 802.835C656.989 802.835 636.959 801.38 608.775 781.333C589.539 767.82 566.598 745.623 543.673 709.533C486.974 620.366 427.662 601.031 427.662 601.031" stroke="black" stroke-linecap="round" stroke-linejoin="round"/>
<path d="M1110.1 734.922C1110.1 734.922 1106.89 743.39 1096.87 756.424C1083.87 773.394 1059.39 798.088 1015.59 821.774C938.186 863.62 889.194 933.154 889.194 933.154L844.156 789.603C844.156 789.603 864.186 788.148 892.37 768.101C911.523 754.505 934.448 732.358 957.389 696.268C1014.09 607.101 1073.42 587.766 1073.42 587.766" fill="white"/>
<mask id="mask5_168_360" style="mask-type:luminance" maskUnits="userSpaceOnUse" x="844" y="587" width="267" height="347">
<path d="M1110.1 734.922C1110.1 734.922 1106.89 743.39 1096.87 756.424C1083.87 773.394 1059.39 798.088 1015.59 821.774C938.186 863.62 889.194 933.154 889.194 933.154L844.156 789.603C844.156 789.603 864.186 788.148 892.37 768.101C911.523 754.505 934.448 732.358 957.389 696.268C1014.09 607.101 1073.42 587.766 1073.42 587.766" fill="white"/>
</mask>
<g mask="url(#mask5_168_360)">
<path opacity="0.4" d="M1096.92 756.424C1083.92 773.394 1059.44 798.088 1015.64 821.773C938.235 863.62 889.244 933.154 889.244 933.154L844.206 789.603C844.206 789.603 864.235 788.148 892.42 768.101C915.493 767.473 956.562 778.124 977.154 811.105C977.154 811.122 1044.19 778.157 1096.92 756.424Z" fill="#92E3A9"/>
<path d="M919.612 762.494C919.612 762.494 906.165 784.343 871.414 798.055" stroke="black" stroke-linecap="round" stroke-linejoin="round"/>
<path d="M1023.96 818.317C1015.69 821.774 981.421 832.541 973.565 838.049" stroke="black" stroke-linecap="round" stroke-linejoin="round"/>
<path d="M957.869 712.692C957.869 712.692 965.692 684.574 977.154 667.538" stroke="black" stroke-linecap="round" stroke-linejoin="round"/>
</g>
<path d="M1110.1 734.922C1110.1 734.922 1106.89 743.39 1096.87 756.424C1083.87 773.394 1059.39 798.088 1015.59 821.774C938.186 863.62 889.194 933.154 889.194 933.154L844.156 789.603C844.156 789.603 864.186 788.148 892.37 768.101C911.523 754.505 934.448 732.358 957.389 696.268C1014.09 607.101 1073.42 587.766 1073.42 587.766" stroke="black" stroke-linecap="round" stroke-linejoin="round"/>
<path d="M693.658 837.189L645.312 842.994C645.312 842.994 611.554 853.282 603.399 860.609C595.245 867.936 584.527 887.586 584.527 887.586C584.527 887.586 572.651 889.835 566.565 887.586C565.882 887.398 565.245 887.07 564.696 886.623C564.146 886.176 563.696 885.62 563.373 884.989C562.597 883.142 562.041 881.21 561.719 879.233C560.856 873.044 560.767 866.771 561.454 860.56C561.454 860.56 553.515 849.213 553.184 844.565C552.853 839.918 554.54 820.764 559.337 815.405C559.531 815.175 559.747 814.965 559.982 814.777C565.275 810.543 595.477 797.112 595.477 797.112C595.477 797.112 602.275 786.907 618.897 783.88C635.52 780.853 671.395 791.439 671.395 791.439L676.605 802.124L693.658 837.189Z" fill="white"/>
<path opacity="0.4" d="M561.752 879.283C560.889 873.094 560.8 866.821 561.487 860.609C561.487 860.609 553.548 849.263 553.217 844.615C552.886 839.967 554.573 820.814 559.37 815.455C553.813 826.537 554.921 843.424 562.678 838.049C572.122 831.433 581.864 844.896 581.864 844.896C571.56 850.239 564.018 868.449 561.752 879.283Z" fill="#92E3A9"/>
<path opacity="0.4" d="M693.658 837.189L645.312 842.994C645.312 842.994 611.554 853.282 603.4 860.609C595.245 867.936 584.527 887.586 584.527 887.586C584.527 887.586 572.652 889.835 566.565 887.586C572.155 885.932 580.26 879.647 581.798 871.228C583.982 859.253 604.144 848.469 603.383 839.19C602.622 829.911 587.157 814.777 587.157 814.777C596.221 812.809 604.392 818.449 604.392 818.449C600.883 814.214 596.723 810.563 592.07 807.632C609.817 805.713 613.224 818.267 613.224 818.267C618.186 819.375 629.764 814.777 629.764 814.777C629.824 810.282 631.098 805.887 633.453 802.058L639.209 811.072C645.477 811.072 666.516 805.084 676.523 802.124L693.658 837.189Z" fill="#92E3A9"/>
<path d="M563.373 885.055C565.969 891.092 584.511 887.603 584.511 887.603C584.511 887.603 595.245 867.936 603.399 860.609C611.554 853.282 645.312 842.978 645.312 842.978L693.658 837.189L671.379 791.489C671.379 791.489 635.503 780.919 618.881 783.946C602.258 786.973 595.46 797.178 595.46 797.178C595.46 797.178 565.258 810.592 559.965 814.843C554.673 819.094 552.787 839.967 553.167 844.615C553.548 849.263 561.437 860.609 561.437 860.609C561.437 860.609 559.585 876.273 563.373 885.055Z" stroke="black" stroke-linecap="round" stroke-linejoin="round"/>
<path d="M564.117 880.987C564.117 880.987 567.144 864 581.5 857.831C581.5 857.831 583.006 847.708 579.234 843.044C575.463 838.38 564.497 847.443 564.117 857.831C563.736 868.218 564.117 880.987 564.117 880.987Z" stroke="black" stroke-linecap="round" stroke-linejoin="round"/>
<path d="M595.46 818.316C595.46 818.316 620.651 829.63 607.485 857.764" stroke="black" stroke-linecap="round" stroke-linejoin="round"/>
<path d="M604.392 813.024C604.392 813.024 625.794 831.483 610.065 854.721" stroke="black" stroke-linecap="round" stroke-linejoin="round"/>
<path d="M633.519 809.269C632.313 817.429 632.313 825.721 633.519 833.881" stroke="black" stroke-linecap="round" stroke-linejoin="round"/>
<path d="M570.171 838.049C570.171 838.049 565.639 840.216 562.612 851.545" stroke="black" stroke-linecap="round" stroke-linejoin="round"/>
<path d="M566.383 818.316C566.383 818.316 559.965 819.193 556.575 831.896" stroke="black" stroke-linecap="round" stroke-linejoin="round"/>
<path d="M938.384 837.189C933.091 840.58 930.296 847.708 930.296 847.708C930.296 847.708 931.288 860.61 930.296 864C929.303 867.391 922.125 873.825 916.452 870.236C910.779 866.647 907.868 853.431 893.18 847.708L801.3 811.122C804.416 806.715 808.135 802.767 812.349 799.395C819.128 793.802 826.69 789.233 834.794 785.832C858.678 775.627 887.722 769.209 901.93 773.741C909.902 776.305 919.512 785.22 926.922 794.003C932.644 800.768 937.044 807.5 938.384 811.122C941.394 819.441 943.71 833.782 938.384 837.189Z" fill="white"/>
<path opacity="0.4" d="M938.384 837.189C933.091 840.579 930.296 847.708 930.296 847.708C930.296 847.708 931.288 860.609 930.296 864C929.303 867.391 922.125 873.825 916.452 870.236C910.779 866.646 907.868 853.431 893.18 847.708L801.3 811.122C804.416 806.715 808.135 802.767 812.349 799.395C824.936 799.395 841.509 800.586 855.088 806.209C855.088 806.209 854.162 796.004 859.455 797.162C859.455 797.162 858.115 786.841 863.822 786.328C869.528 785.815 868.188 789.636 868.188 789.636C868.188 789.636 868.188 800.04 872.803 802.14C877.417 804.241 874.705 789.884 883.57 787.883C883.57 787.883 884.066 804.059 889.26 809.302C889.26 809.302 883.355 826.355 891.41 834.807C899.465 843.259 914.566 853.332 917.874 853.001C921.182 852.67 908.976 837.949 908.976 837.949C908.976 837.949 909.207 822.948 918.47 820.004C927.732 817.059 935.787 824.602 935.787 824.602C934.386 814.022 931.42 803.71 926.988 794.003C932.711 800.768 937.11 807.499 938.45 811.122C941.394 819.441 943.71 833.781 938.384 837.189Z" fill="#92E3A9"/>
<path d="M801.284 811.122C801.284 811.122 810.894 796.021 834.794 785.832C858.694 775.644 887.722 769.21 901.93 773.741C916.138 778.273 935.357 802.819 938.318 811.122C941.279 819.425 943.611 833.782 938.318 837.189C933.025 840.596 930.247 847.692 930.247 847.692C930.247 847.692 931.239 860.61 930.247 864C929.254 867.391 922.076 873.825 916.419 870.236C910.762 866.647 907.818 853.431 893.131 847.692" stroke="black" stroke-linecap="round" stroke-linejoin="round"/>
<path d="M908.976 837.95C908.976 837.95 910.117 823.212 917.246 823.973C924.375 824.734 929.8 840.216 930.313 857.765C930.296 857.765 922.522 842.482 908.976 837.95Z" stroke="black" stroke-linecap="round" stroke-linejoin="round"/>
<path d="M885.506 842.978C885.506 842.978 877.236 816.415 894.934 806.226" stroke="black" stroke-linecap="round" stroke-linejoin="round"/>
<path d="M883.554 791.489C883.554 791.489 876.706 814.281 883.554 827.05C883.554 827.05 867.378 814.909 855.105 820.186" stroke="black" stroke-linecap="round" stroke-linejoin="round"/>
<path d="M869.28 820.004C869.28 820.004 866.948 811.122 867.328 806.226C867.709 801.33 861.159 795.64 863.673 789.603" stroke="black" stroke-linecap="round" stroke-linejoin="round"/>
<path d="M859.438 800.553C859.438 800.553 864.847 812.859 868.188 814.827" stroke="black" stroke-linecap="round" stroke-linejoin="round"/>
<path d="M871.414 829.63C871.414 829.63 878.228 826.62 883.57 829.63" stroke="black" stroke-linecap="round" stroke-linejoin="round"/>
<path d="M924.027 807.698C924.027 807.698 934.977 806.772 937.623 828.968" stroke="black" stroke-linecap="round" stroke-linejoin="round"/>
<path d="M763.06 648.335C763.06 648.335 736.712 633.151 758.297 578.288C779.881 523.425 844.768 506.786 859.439 490.246C859.439 490.246 853.517 658.739 763.06 648.335Z" fill="#92E3A9"/>
<mask id="mask6_168_360" style="mask-type:luminance" maskUnits="userSpaceOnUse" x="749" y="490" width="111" height="159">
<path d="M763.06 648.335C763.06 648.335 736.712 633.151 758.297 578.288C779.881 523.425 844.768 506.786 859.439 490.246C859.439 490.246 853.517 658.739 763.06 648.335Z" fill="white"/>
</mask>
<g mask="url(#mask6_168_360)">
<path opacity="0.3" d="M847.944 505.992C840.534 520.067 817.725 537.831 792.667 580.571C780.413 601.948 770.212 624.438 762.2 647.739C758.214 644.795 742.088 629.909 754.294 589.849C754.774 604.074 759.818 612.063 759.818 612.063C758.231 556.736 847.944 505.992 847.944 505.992Z" fill="black"/>
</g>
<path d="M763.06 648.335C763.06 648.335 736.712 633.151 758.297 578.288C779.881 523.425 844.768 506.786 859.439 490.246C859.439 490.246 853.517 658.739 763.06 648.335Z" stroke="black" stroke-linecap="round" stroke-linejoin="round"/>
<path d="M765.492 580.571C765.492 580.571 761.39 609.896 770.817 629L775.531 616.777C775.531 616.777 808.247 615.9 825.251 594.961" stroke="black" stroke-linecap="round" stroke-linejoin="round"/>
<path d="M783.388 555.711C783.388 555.711 775.961 583.184 781.205 602.387L783.388 592.794C783.388 592.794 824.391 582.175 833.107 569.522" stroke="black" stroke-linecap="round" stroke-linejoin="round"/>
<path d="M804.625 537.914C804.625 537.914 794.701 558.407 794.933 575.427L799.779 567.157C799.779 567.157 834.414 560.541 840.533 549.707" stroke="black" stroke-linecap="round" stroke-linejoin="round"/>
<path d="M825.25 520.216C818.022 530.14 809.438 552.552 809.438 552.552L817.344 543.554C817.344 543.554 836.894 538.46 844.205 528.916" stroke="black" stroke-linecap="round" stroke-linejoin="round"/>
<path d="M731.65 793.043C731.65 793.043 742.898 594.96 838.35 520.133C838.35 520.133 749.795 593.29 745.23 793.043H731.65Z" fill="#92E3A9"/>
<mask id="mask7_168_360" style="mask-type:luminance" maskUnits="userSpaceOnUse" x="731" y="520" width="108" height="274">
<path d="M731.65 793.043C731.65 793.043 742.898 594.96 838.35 520.133C838.35 520.133 749.795 593.29 745.23 793.043H731.65Z" fill="white"/>
</mask>
<g mask="url(#mask7_168_360)">
<path opacity="0.3" d="M731.65 793.043C731.65 793.043 742.898 594.96 838.35 520.133C838.35 520.133 749.795 593.29 745.23 793.043H731.65Z" fill="black"/>
</g>
<path d="M731.65 793.043C731.65 793.043 742.898 594.96 838.35 520.133C838.35 520.133 749.795 593.29 745.23 793.043H731.65Z" stroke="black" stroke-linecap="round" stroke-linejoin="round"/>
<path d="M722.719 586.558C722.719 586.558 746.289 572.979 726.97 523.905C707.651 474.83 649.629 459.944 636.513 445.158C636.513 445.158 641.805 595.804 722.719 586.558Z" fill="#92E3A9"/>
<mask id="mask8_168_360" style="mask-type:luminance" maskUnits="userSpaceOnUse" x="636" y="445" width="99" height="142">
<path d="M722.719 586.558C722.719 586.558 746.289 572.979 726.97 523.905C707.651 474.83 649.629 459.944 636.513 445.158C636.513 445.158 641.805 595.804 722.719 586.558Z" fill="white"/>
</mask>
<g mask="url(#mask8_168_360)">
<path opacity="0.3" d="M727.036 523.872C726.007 521.222 724.763 518.66 723.315 516.214C720.354 511.252 727.813 525.956 727.962 537.832C728.069 540.802 727.501 543.757 726.301 546.476C725.101 549.195 723.299 551.606 721.032 553.528C719.543 545.754 718.733 537.6 715.011 530.604C696.057 494.811 651.796 462.376 644.766 457.034C645.527 457.993 669.758 488.46 684.098 505.992C691.789 515.436 696.9 527.345 701.961 538.311C708.379 552.254 714.135 566.429 719.841 580.72C720.635 582.721 721.495 584.706 722.239 586.691C728.657 582.688 732.163 575.245 733.652 567.819C736.1 555.132 733.189 542.016 729.137 529.777C728.492 527.775 727.813 525.807 727.036 523.872Z" fill="black"/>
</g>
<path d="M722.719 586.558C722.719 586.558 746.289 572.979 726.97 523.905C707.651 474.83 649.629 459.944 636.513 445.158C636.513 445.158 641.805 595.804 722.719 586.558Z" stroke="black" stroke-linecap="round" stroke-linejoin="round"/>
<path d="M720.536 525.956C720.536 525.956 724.208 552.171 715.772 569.257L711.555 558.324C711.555 558.324 682.295 557.547 667.079 538.824" stroke="black" stroke-linecap="round" stroke-linejoin="round"/>
<path d="M704.541 503.709C704.541 503.709 711.157 528.288 706.493 545.456L704.541 536.872C704.541 536.872 667.856 527.378 660.065 516.065" stroke="black" stroke-linecap="round" stroke-linejoin="round"/>
<path d="M685.537 487.715C685.537 487.715 694.402 506.058 694.204 521.275L689.87 513.849C689.87 513.849 658.891 507.993 653.482 498.251" stroke="black" stroke-linecap="round" stroke-linejoin="round"/>
<path d="M667.078 471.953C673.562 480.901 681.237 500.881 681.237 500.881L674.108 492.843C674.108 492.843 656.625 488.278 650.092 479.743" stroke="black" stroke-linecap="round" stroke-linejoin="round"/>
<path d="M746.884 707.962C746.884 707.962 740.764 538.824 655.401 471.837C655.401 471.837 737.589 545.456 738.796 734.906C738.796 734.906 741.476 735.435 742.915 731.068" fill="#92E3A9"/>
<mask id="mask9_168_360" style="mask-type:luminance" maskUnits="userSpaceOnUse" x="655" y="471" width="92" height="264">
<path d="M746.884 707.962C746.884 707.962 740.764 538.824 655.401 471.837C655.401 471.837 737.589 545.456 738.796 734.906C738.796 734.906 741.476 735.435 742.915 731.068" fill="white"/>
</mask>
<g mask="url(#mask9_168_360)">
<path opacity="0.3" d="M746.884 707.962C746.884 707.962 740.764 538.824 655.401 471.837C655.401 471.837 737.589 545.456 738.796 734.906C738.796 734.906 741.476 735.435 742.915 731.068" fill="black"/>
</g>
<path d="M746.884 707.962C746.884 707.962 740.764 538.824 655.401 471.837C655.401 471.837 737.589 545.456 738.796 734.906C738.796 734.906 741.476 735.435 742.915 731.068" stroke="black" stroke-linecap="round" stroke-linejoin="round"/>
<path d="M608.858 861.602C608.858 861.602 603.168 857.103 608.858 843.044C613.224 832.276 627.432 832.805 628.21 821.542C634.032 822.27 638.679 818.416 641.69 813.702C644.7 808.988 647.131 803.331 652.16 800.85C653.814 800.089 655.468 799.676 656.989 798.865C662.96 795.69 665.028 787.105 671.478 785.154C675.283 783.996 679.748 785.567 683.238 783.797C686.728 782.028 688.448 777.181 692.236 775.527C693.861 775.032 695.519 774.65 697.198 774.386C703.897 772.633 708.214 764.462 715.144 764.644C717.145 764.727 719.295 765.537 721.082 764.644C722.488 763.949 723.331 762.345 724.787 761.783C726.039 761.485 727.349 761.537 728.574 761.932C732.444 762.765 736.473 762.431 740.152 760.972C743.46 759.467 744.221 755.084 746.239 754.092C754.261 750.139 763.259 765.537 767.907 769.391C770.619 771.657 773.679 765.868 777.202 766C780.411 766.133 782.048 771.095 785.224 770.698C783.752 771.856 784.595 774.419 786.216 775.362C787.949 776.087 789.813 776.442 791.691 776.404C796.256 776.884 800.375 779.282 804.344 781.614C805.056 781.958 805.679 782.461 806.164 783.086C806.643 783.814 806.742 784.74 807.239 785.451C808.281 786.924 810.695 787.105 811.473 788.66C811.718 789.5 811.862 790.366 811.903 791.24C812.416 793.688 815.31 794.797 817.808 794.979C820.305 795.16 822.985 794.863 825.118 796.186C826.595 797.401 827.937 798.77 829.121 800.271C834.083 805.084 839.839 804.82 844.421 810.906C849.217 817.274 852.459 824.238 859.307 828.836C870.885 836.626 874.193 847.609 877.352 857.814C880.511 868.019 835.638 893.425 745.032 899.925C654.426 906.425 607.667 868.482 608.858 861.602Z" fill="black"/>
<path opacity="0.4" d="M693.394 790.976C695.411 791.505 698.356 791.373 698.604 789.322C698.561 788.857 698.595 788.387 698.703 787.933C699.232 786.709 701.118 787.651 702.424 787.354C703.4 787.122 703.996 786.163 704.707 785.468C705.618 784.631 706.794 784.14 708.029 784.079C709.265 784.019 710.483 784.393 711.472 785.137C712.613 786.064 713.374 787.486 714.681 788.148C717.128 789.372 721.148 787.999 722.057 790.563" stroke="white" stroke-linecap="round" stroke-linejoin="round"/>
<path opacity="0.4" d="M728.276 803.894C728.843 804.256 729.483 804.486 730.151 804.567C730.818 804.647 731.495 804.576 732.131 804.358C732.767 804.14 733.346 803.781 733.824 803.309C734.302 802.836 734.667 802.261 734.892 801.628C735.074 800.966 735.14 800.189 735.703 799.775C736.563 799.164 737.721 799.991 738.779 800.09C740.88 800.305 742.087 797.857 743.46 796.286C744.293 795.354 745.359 794.66 746.548 794.278C747.738 793.895 749.008 793.836 750.228 794.107C751.448 794.378 752.574 794.97 753.489 795.821C754.404 796.672 755.076 797.752 755.435 798.948L767.906 802.256" stroke="white" stroke-linecap="round" stroke-linejoin="round"/>
<path opacity="0.4" d="M749.613 777.628C751.75 776.946 753.986 776.627 756.229 776.686C755.934 775.99 755.87 775.219 756.045 774.484C756.22 773.75 756.625 773.09 757.201 772.602C757.778 772.115 758.495 771.824 759.249 771.773C760.002 771.722 760.752 771.913 761.389 772.319C761.919 771.837 762.545 771.472 763.226 771.25C763.907 771.029 764.627 770.954 765.339 771.033C766.051 771.111 766.738 771.34 767.355 771.704C767.971 772.069 768.503 772.56 768.915 773.146L769.411 775.23C772.668 776.31 775.692 777.993 778.326 780.192" stroke="white" stroke-linecap="round" stroke-linejoin="round"/>
<path opacity="0.4" d="M784.231 793.176L787.539 794.152C786.994 793.291 788.019 792.233 789.028 792.034C790.037 792.036 791.039 791.863 791.989 791.522C792.981 790.926 793.279 789.669 793.924 788.71C794.569 787.751 796.19 787.205 796.736 788.214C796.603 787.155 797.778 786.295 798.853 786.328C799.932 786.47 800.948 786.918 801.78 787.618L810.249 793.506" stroke="white" stroke-linecap="round" stroke-linejoin="round"/>
<path d="M581.236 887.586C581.236 887.586 590.812 870.666 603.399 860.609C615.986 850.553 625.05 837.635 636.132 823.94C647.214 810.245 663.324 792.878 671.379 791.489C679.434 790.099 697.562 792.696 699.579 809.269C699.579 809.269 711.902 794.383 729.153 804.803C746.404 815.223 737.837 834.923 737.837 834.923C737.837 834.923 744.122 832.409 748.025 834.923C751.929 837.437 763.043 970.733 763.043 970.733C756.68 972.33 750.444 974.397 744.386 976.919C734.826 980.938 722.736 981.451 714.614 976.919C714.614 976.919 699.513 980.822 689.44 980.127C679.368 979.433 652.176 978.936 642.616 976.406C632.085 973.361 621.832 969.427 611.967 964.646C604.773 960.543 598.845 954.54 594.832 947.295C591.821 941.176 586.28 939.174 577.713 928.853C569.145 918.532 581.236 887.586 581.236 887.586Z" fill="white"/>
<path opacity="0.4" d="M748.025 834.923C744.254 832.508 738.267 834.757 737.853 834.923C738.601 833.043 739.155 831.092 739.507 829.101L729.17 850.884C729.17 850.884 713.175 871.691 707.453 881.02C701.73 890.348 706.626 891.324 699.596 906.177C692.567 921.03 682.279 949.446 671.395 951.745C660.512 954.044 637.389 946.138 633.089 935.006C628.788 923.875 639.159 916.018 651.878 899.892C664.597 883.765 669.874 877.728 668.865 870.252C667.856 862.776 693.675 817.721 695.329 814.975C694.651 815.869 690.665 821.211 685.669 827.81C687.904 823.635 689.828 819.301 691.425 814.843L667.624 804.82C667.624 804.82 644.22 829.729 656.807 839.256C663.721 844.499 670.568 844.582 676.936 839.256C671.974 845.756 667.095 851.793 664.366 854.771C656.807 863.041 655.285 872.22 651.895 877.645C648.504 883.071 635.04 905.598 623.429 913.736C611.818 921.873 604.954 924.106 595.493 919.012C589.043 915.522 585.04 896.369 583.121 884.576C581.914 886.478 581.269 887.636 581.269 887.636C581.269 887.636 569.195 918.565 577.762 928.886C586.33 939.207 591.855 941.209 594.865 947.328C598.883 954.545 604.789 960.531 611.951 964.646C621.846 969.426 632.126 973.366 642.682 976.422C652.242 978.92 679.434 979.433 689.507 980.127C699.58 980.822 714.681 976.919 714.681 976.919C722.736 981.451 734.81 980.954 744.453 976.919C749.984 974.629 755.658 972.701 761.439 971.146C761.968 970.468 762.465 969.757 762.994 969.046C761.621 953.647 751.681 837.288 748.025 834.923Z" fill="#92E3A9"/>
<path opacity="0.4" d="M708.015 814.827C708.015 814.827 684.032 842.597 700.572 854.721C717.112 866.845 735.025 843.739 735.802 824.602L708.015 814.827Z" fill="#92E3A9"/>
<path d="M763.06 970.733L761.406 971.146C755.625 972.701 749.951 974.629 744.419 976.919C734.843 980.954 722.769 981.451 714.647 976.919C714.647 976.919 699.546 980.838 689.473 980.127C679.401 979.416 652.209 978.92 642.649 976.422C632.104 973.364 621.835 969.425 611.951 964.646C604.77 960.522 598.851 954.518 594.832 947.279C591.821 941.159 586.28 939.174 577.729 928.837C569.178 918.499 581.236 887.586 581.236 887.586C581.236 887.586 581.881 886.428 583.088 884.526C586.396 879.184 594.104 867.986 603.399 860.609C615.986 850.52 625.05 837.635 636.132 823.94C647.214 810.245 663.324 792.878 671.379 791.489C679.434 790.099 697.562 792.696 699.579 809.269C699.579 809.269 711.902 794.383 729.153 804.803C740.45 811.667 740.731 822.468 739.49 829.084C739.138 831.076 738.584 833.027 737.836 834.906C738.25 834.757 744.237 832.508 748.009 834.906C751.78 837.304 761.604 953.63 762.895 969.029C762.994 970.137 763.06 970.733 763.06 970.733Z" stroke="black" stroke-linecap="round" stroke-linejoin="round"/>
<path d="M699.58 809.269C694.039 813.768 663.82 870.798 658.23 877.596C652.639 884.394 637.075 903.762 630.277 910.891C625.486 916.324 621.422 922.356 618.186 928.837C613.851 933.195 609.184 937.21 604.227 940.845" stroke="black" stroke-linecap="round" stroke-linejoin="round"/>
<path d="M737.837 834.923C732.937 843.224 728.519 851.8 724.605 860.609C719.643 872.303 705.468 902.141 699.563 913.537C693.658 924.934 684.198 950.918 677.4 955.086C670.602 959.254 660.777 968.682 654.74 967.921" stroke="black" stroke-linecap="round" stroke-linejoin="round"/>
<path d="M660.049 971.262C660.049 971.262 658.395 967.557 660.049 966.697" stroke="black" stroke-linecap="round" stroke-linejoin="round"/>
<path d="M718.931 973.082C718.931 973.082 732.544 960.065 734.429 950.554C736.315 941.044 763.043 866.2 763.043 866.2" stroke="black" stroke-linecap="round" stroke-linejoin="round"/>
<path d="M667.591 804.803C667.591 804.803 683.089 803.795 691.392 814.827C691.392 814.827 678.921 845.872 663.82 837.983C648.719 830.093 667.591 804.803 667.591 804.803Z" fill="white" stroke="black" stroke-linecap="round" stroke-linejoin="round"/>
<path d="M708.015 814.827C708.015 814.827 723.579 814.281 735.802 824.602C735.802 824.602 727.648 859.468 708.015 854.175C688.382 848.883 701.581 826.074 708.015 814.827Z" fill="white" stroke="black" stroke-linecap="round" stroke-linejoin="round"/>
<path d="M741.624 844.615C741.624 844.615 732.924 857.715 734.066 867.275C735.207 876.835 748.025 875.065 748.025 875.065" stroke="black" stroke-linecap="round" stroke-linejoin="round"/>
<path d="M676.655 877.596C676.655 877.596 687.34 885.502 697.678 887.603" stroke="black" stroke-linecap="round" stroke-linejoin="round"/>
<path d="M587.157 891.953C587.157 891.953 588.679 910.147 592.45 916.498C596.221 922.849 621.61 922.535 621.61 922.535" stroke="black" stroke-linecap="round" stroke-linejoin="round"/>
<path d="M627.945 934.99C632.152 942.42 638.642 948.296 646.453 951.745C659.685 957.65 668.848 955.053 668.848 955.053" stroke="black" stroke-linecap="round" stroke-linejoin="round"/>
<path d="M691.392 961.421C691.392 961.421 711.405 970.601 723.496 963.373" stroke="black" stroke-linecap="round" stroke-linejoin="round"/>
<path d="M635.503 847.692C635.503 847.692 639.771 857.616 648.405 859.898" stroke="black" stroke-linecap="round" stroke-linejoin="round"/>
<path d="M718.931 910.891C723.173 914.392 728.468 916.366 733.966 916.498" stroke="black" stroke-linecap="round" stroke-linejoin="round"/>
<path d="M910.051 921.774C910.051 921.774 897.96 943.673 885.125 949.727C872.29 955.781 861.704 953.515 854.162 957.997C846.62 962.479 833.768 964.795 816.401 967.822C799.034 970.849 781.535 974.62 769.13 972.354C764.835 971.532 760.687 970.071 756.824 968.02C748.482 963.407 740.923 957.5 734.429 950.521C728.26 944.186 728.789 933.981 732.941 927.1C733.841 925.426 735.074 923.953 736.565 922.773C738.055 921.592 739.771 920.729 741.608 920.236C741.608 920.236 737.456 916.928 732.775 912.744C727.697 908.212 722.041 902.621 720.486 899.082C717.443 892.284 718.203 880.209 728.756 869.624C731.792 866.541 735.449 864.14 739.484 862.58C743.519 861.02 747.84 860.337 752.16 860.576C752.16 860.576 735.984 847.344 742.335 831.863C744.634 826.273 748.736 818.879 761.224 816.762C779.104 813.735 789.177 823.94 789.177 823.94C789.177 823.94 786.348 806.209 804.377 802.438C822.405 798.667 861.705 827.364 869.28 831.152C874.721 833.864 883.256 840.083 891.278 845.029L893.197 846.22C895.413 847.543 897.58 848.75 899.581 849.71C908.926 856.508 911.755 867.242 916.468 870.236C917.798 870.985 919.313 871.339 920.836 871.257C922.36 871.175 923.828 870.66 925.069 869.773C925.384 870.252 925.681 870.716 925.929 871.162C929.684 877.96 938.748 906.756 910.051 921.774Z" fill="white"/>
<path opacity="0.4" d="M910.051 921.774C910.051 921.774 897.96 943.673 885.125 949.727C872.29 955.78 861.704 953.515 854.162 957.997C846.62 962.479 833.768 964.795 816.401 967.822C799.034 970.848 781.535 974.62 769.13 972.354C764.835 971.532 760.687 970.071 756.824 968.02C766.202 967.309 773.364 962.612 776.672 955.565C780.824 946.832 768.485 946.171 765.524 951.695C762.564 957.219 744.833 955.235 747.959 951.695C751.085 948.156 744.833 930.044 741.541 927.613C740.135 926.538 736.579 926.637 732.874 927.1C733.775 925.426 735.008 923.953 736.498 922.772C737.989 921.592 739.705 920.729 741.541 920.236C741.541 920.236 737.39 916.928 732.709 912.743L744.287 919.607C744.287 919.607 769.097 941.11 782.643 951.695C796.19 962.281 821.876 959.767 828.624 951.695C835.373 943.624 804.757 918.483 795.197 910.841C785.935 903.464 781.849 891.109 781.618 890.348C782.428 891.109 807.486 915.373 821.314 931.566C835.439 948.106 850.16 943.144 866.154 935.684C882.148 928.225 873.2 906.888 868.089 901.81C862.978 896.733 840.467 877.182 836.928 871.245C833.388 865.307 808.81 844.334 807.156 843.011C808.81 844.102 836.018 861.717 839.921 866.167C843.825 870.616 854.03 877.745 869.181 888.562C884.331 899.379 895.826 911.933 907.024 888.562C914.715 872.485 900.656 854.605 891.129 844.996L893.048 846.186C895.264 847.51 897.431 848.717 899.432 849.676C908.777 856.474 911.606 867.209 916.32 870.203C917.649 870.951 919.164 871.305 920.687 871.223C922.211 871.141 923.679 870.626 924.92 869.739C925.235 870.219 925.532 870.682 925.78 871.129C929.684 877.96 938.748 906.756 910.051 921.774Z" fill="#92E3A9"/>
<path opacity="0.4" d="M756.808 852.604C758.943 847.357 762.274 842.68 766.535 838.947C770.797 835.214 775.871 832.528 781.353 831.102C781.353 831.102 799.862 843.937 799.862 854.506C799.862 865.075 792.733 873.262 779.501 869.177C766.269 865.092 756.808 852.604 756.808 852.604Z" fill="#92E3A9"/>
<path opacity="0.4" d="M801.284 825.876C801.284 825.876 808.859 816.051 820.553 813.041C820.553 813.041 844.917 831.549 835.754 841.357C826.59 851.165 805.055 838.711 801.284 825.876Z" fill="#92E3A9"/>
<path opacity="0.4" d="M731.65 898.718C731.65 898.718 740.979 884.129 754.691 880.209C754.691 880.209 783.024 896.204 768.667 908.791C754.31 921.378 735.058 905.516 731.65 898.718Z" fill="#92E3A9"/>
<path d="M910.051 921.774C910.051 921.774 897.96 943.673 885.125 949.727C872.29 955.781 861.705 953.515 854.163 957.997C846.62 962.479 833.769 964.795 816.402 967.822C799.035 970.849 781.535 974.62 769.13 972.354C756.725 970.088 745.032 961.388 734.396 950.521C725.101 940.961 731.006 922.519 741.575 920.236C741.575 920.236 723.464 905.88 720.453 899.082C717.443 892.284 718.171 880.209 728.723 869.624C731.759 866.541 735.416 864.14 739.451 862.58C743.487 861.02 747.808 860.337 752.127 860.576C752.127 860.576 735.951 847.344 742.303 831.863C744.602 826.273 748.704 818.879 761.191 816.762C779.071 813.735 789.144 823.94 789.144 823.94C789.144 823.94 786.315 806.209 804.344 802.438C822.373 798.667 861.705 827.364 869.28 831.152C875.152 834.096 884.662 841.076 893.197 846.22C895.413 847.543 897.58 848.75 899.581 849.71C908.927 856.508 911.755 867.242 916.469 870.236C917.798 870.985 919.313 871.339 920.837 871.257C922.36 871.175 923.828 870.66 925.07 869.773C925.384 870.252 925.682 870.716 925.93 871.162C929.684 877.96 938.748 906.756 910.051 921.774Z" stroke="black" stroke-linecap="round" stroke-linejoin="round"/>
<path d="M789.193 824.056C791.724 829.878 814.698 850.52 824.622 856.574C834.546 862.627 862.217 892.829 870.272 896.832C878.327 900.835 885.373 913.455 894.934 916.482" stroke="black" stroke-linecap="round" stroke-linejoin="round"/>
<path d="M752.193 860.609C766.037 872.187 781.651 891.82 789.193 897.361C796.736 902.902 813.871 922.039 821.43 931.599C828.989 941.159 834.017 947.709 863.723 951.745" stroke="black" stroke-linecap="round" stroke-linejoin="round"/>
<path d="M874.242 922.535C874.242 922.535 872.24 940.729 844.47 944.186" stroke="black" stroke-linecap="round" stroke-linejoin="round"/>
<path d="M907.537 870.236C907.537 870.236 915.079 891.821 894.934 899.875" stroke="black" stroke-linecap="round" stroke-linejoin="round"/>
<path d="M741.624 920.269C741.624 920.269 761.158 936.627 769.13 941.159C777.102 945.691 787.688 957.782 795.743 960.296C801.014 961.754 806.582 961.754 811.853 960.296" stroke="black" stroke-linecap="round" stroke-linejoin="round"/>
<path d="M832.727 942.83C830.649 946.314 827.893 949.345 824.622 951.745" stroke="black" stroke-linecap="round" stroke-linejoin="round"/>
<path d="M752.193 849.644C754.321 844.391 757.649 839.711 761.912 835.977C766.174 832.243 771.252 829.559 776.739 828.142C776.739 828.142 795.247 840.977 795.247 851.562C795.247 862.148 788.102 870.302 774.87 866.217C761.638 862.131 752.193 849.644 752.193 849.644Z" fill="white" stroke="black" stroke-linecap="round" stroke-linejoin="round"/>
<path d="M798.257 824.056C798.257 824.056 805.833 814.231 817.526 811.205C817.526 811.205 841.906 829.713 832.727 839.538C823.547 849.362 802.045 836.808 798.257 824.056Z" fill="white" stroke="black" stroke-linecap="round" stroke-linejoin="round"/>
<path d="M729.153 896.104C729.153 896.104 738.465 881.5 752.193 877.596C752.193 877.596 780.51 893.59 766.169 906.177C751.829 918.764 732.56 902.902 729.153 896.104Z" fill="white" stroke="black" stroke-linecap="round" stroke-linejoin="round"/>
<path d="M735.802 943.475C735.802 943.475 748.935 940.812 752.16 928.837C752.16 928.837 765.591 939.207 757.85 947.279C746.471 959.171 735.802 943.475 735.802 943.475Z" fill="white" stroke="black" stroke-linecap="round" stroke-linejoin="round"/>
<path d="M850.755 864C853.057 862.725 855.037 860.939 856.542 858.78C858.047 856.622 859.038 854.147 859.438 851.545" stroke="black" stroke-linecap="round" stroke-linejoin="round"/>
<path d="M826.971 877.596C826.971 877.596 824.043 894.136 807.95 896.849" stroke="black" stroke-linecap="round" stroke-linejoin="round"/>
<path d="M786.58 916.498C786.58 916.498 779.964 926.075 770.238 928.837" stroke="black" stroke-linecap="round" stroke-linejoin="round"/>
<path d="M792.534 958.89C789.814 962.835 786.044 965.94 781.651 967.855" stroke="black" stroke-linecap="round" stroke-linejoin="round"/>
<path d="M804.41 961.421C804.58 962.549 804.521 963.701 804.237 964.806C803.953 965.912 803.449 966.948 802.756 967.855" stroke="black" stroke-linecap="round" stroke-linejoin="round"/>
<path d="M757.486 964.646C760.741 964.374 763.892 963.368 766.702 961.704C769.512 960.039 771.909 957.76 773.712 955.036" stroke="black" stroke-linecap="round" stroke-linejoin="round"/>
<defs>
<filter id="filter0_f_168_360" x="20.8" y="0.800003" width="1464.4" height="1403.4" filterUnits="userSpaceOnUse" color-interpolation-filters="sRGB">
<feFlood flood-opacity="0" result="BackgroundImageFix"/>
<feBlend mode="normal" in="SourceGraphic" in2="BackgroundImageFix" result="shape"/>
<feGaussianBlur stdDeviation="64.6" result="effect1_foregroundBlur_168_360"/>
</filter>
<filter id="filter1_f_168_360" x="-360.5" y="637.5" width="2278" height="810" filterUnits="userSpaceOnUse" color-interpolation-filters="sRGB">
<feFlood flood-opacity="0" result="BackgroundImageFix"/>
<feBlend mode="normal" in="SourceGraphic" in2="BackgroundImageFix" result="shape"/>
<feGaussianBlur stdDeviation="130.75" result="effect1_foregroundBlur_168_360"/>
</filter>
<filter id="filter2_f_168_360" x="-226" y="551" width="1968" height="455" filterUnits="userSpaceOnUse" color-interpolation-filters="sRGB">
<feFlood flood-opacity="0" result="BackgroundImageFix"/>
<feBlend mode="normal" in="SourceGraphic" in2="BackgroundImageFix" result="shape"/>
<feGaussianBlur stdDeviation="2" result="effect1_foregroundBlur_168_360"/>
</filter>
<filter id="filter3_f_168_360" x="-176.3" y="705.7" width="1867.6" height="399.6" filterUnits="userSpaceOnUse" color-interpolation-filters="sRGB">
<feFlood flood-opacity="0" result="BackgroundImageFix"/>
<feBlend mode="normal" in="SourceGraphic" in2="BackgroundImageFix" result="shape"/>
<feGaussianBlur stdDeviation="28.15" result="effect1_foregroundBlur_168_360"/>
</filter>
</defs>
</svg>
