<svg width="218" height="48" viewBox="0 0 218 48" fill="none" xmlns="http://www.w3.org/2000/svg">
<g clip-path="url(#clip0_171_293)">
<path fill-rule="evenodd" clip-rule="evenodd" d="M37.019 17.7219C37.0144 17.4994 37.0007 17.2772 36.9776 17.0559L36.8418 15.7293L34.5203 15.9669C32.7978 16.1429 31.1789 16.8729 29.9067 18.0473C28.6344 19.2218 27.7774 20.7772 27.4644 22.4801C26.6229 21.5973 25.5903 20.9189 24.446 20.4969C23.3016 20.075 22.0759 19.9207 20.8627 20.0459L18.5411 20.2836L18.6769 21.6101C18.893 23.7211 19.9388 25.6599 21.5843 26.9998C23.2298 28.3397 25.3402 28.971 27.4512 28.7549L27.7829 28.721L28.36 34.359C28.387 34.6229 28.5177 34.8652 28.7234 35.0327C28.9291 35.2002 29.1929 35.2791 29.4568 35.2521C29.7207 35.2251 29.963 35.0944 30.1305 34.8887C30.298 34.683 30.3769 34.4192 30.3499 34.1553L29.5012 25.8641L29.8328 25.8302C31.8292 25.6261 33.6761 24.6793 35.0071 23.1774C36.3382 21.6755 37.0562 19.7283 37.019 17.7219ZM29.3333 23.8706C29.3471 22.3943 29.9045 20.975 30.899 19.884C31.8936 18.793 33.2553 18.1068 34.724 17.9568L35.0198 17.9265C35.006 19.4027 34.4486 20.822 33.4541 21.9131C32.4595 23.0041 31.0978 23.6902 29.6291 23.8403L29.3333 23.8706ZM21.0663 22.0358C22.5349 21.8852 24.0075 22.2812 25.2024 23.1481C26.3973 24.015 27.2308 25.292 27.5434 26.7348L27.2475 26.765C25.779 26.9157 24.3064 26.5196 23.1115 25.6527C21.9165 24.7858 21.0831 23.5089 20.7705 22.0661L21.0663 22.0358Z" fill="#42C92C"/>
</g>
<g clip-path="url(#clip1_171_293)">
<path fill-rule="evenodd" clip-rule="evenodd" d="M12.3653 19.4706C12.1784 19.3499 11.9864 19.2371 11.7901 19.1324L10.6143 18.5032L9.51315 20.5607C8.69589 22.0871 8.39584 23.8375 8.65802 25.5489C8.92021 27.2604 9.7305 28.8406 10.9672 30.0524C9.76476 30.2564 8.62497 30.7331 7.63525 31.4458C6.64554 32.1586 5.83219 33.0885 5.25756 34.1643L4.15639 36.2219L5.33212 36.8511C7.20305 37.8524 9.39513 38.0695 11.4261 37.4546C13.4571 36.8397 15.1606 35.4431 16.1619 33.5722L16.3193 33.2783L21.3161 35.9525C21.55 36.0777 21.824 36.1048 22.0779 36.028C22.3317 35.9511 22.5447 35.7765 22.6698 35.5427C22.795 35.3088 22.8221 35.0348 22.7453 34.7809C22.6684 34.527 22.4938 34.3141 22.26 34.1889L14.9117 30.2562L15.069 29.9622C16.0162 28.193 16.2639 26.1325 15.7632 24.1892C15.2624 22.2458 14.0496 20.5616 12.3653 19.4706ZM13.1651 29.2806C11.9489 28.4437 11.084 27.1878 10.7356 25.7533C10.3872 24.3187 10.5799 22.806 11.2767 21.5046L11.4171 21.2424C12.6332 22.0793 13.4982 23.3351 13.8465 24.7697C14.1949 26.2043 14.0022 27.7169 13.3054 29.0184L13.1651 29.2806ZM7.02116 35.1082C7.71751 33.8065 8.86926 32.8071 10.2562 32.3012C11.643 31.7954 13.1677 31.8185 14.5387 32.3661L14.3984 32.6283C13.702 33.93 12.5503 34.9294 11.1634 35.4353C9.77647 35.9412 8.25176 35.9181 6.88084 35.3704L7.02116 35.1082Z" fill="#42C92C"/>
</g>
<g clip-path="url(#clip2_171_293)">
<path d="M23.6243 13.3096L22.7195 13.5032C22.5775 13.5393 22.443 13.5207 22.316 13.4473C22.189 13.374 22.0891 13.2701 22.0163 13.1357C21.9614 13.0219 21.9505 12.8975 21.9837 12.7627C22.0173 12.6281 22.0974 12.5004 22.2242 12.3796L23.019 11.6389L22.6134 10.9012C22.5408 10.7736 22.5157 10.6393 22.5381 10.4982C22.5605 10.3572 22.6195 10.2347 22.7149 10.1307C22.8052 10.0339 22.921 9.98272 23.0623 9.97706C23.2036 9.9714 23.3436 10.0086 23.4822 10.0886L24.2375 10.5247L24.8745 9.92393C24.9813 9.82081 25.1076 9.75719 25.2534 9.73309C25.399 9.70936 25.5313 9.73184 25.6503 9.80052C25.7692 9.86919 25.8548 9.97251 25.9071 10.1105C25.9593 10.2484 25.9676 10.3897 25.9318 10.5343L25.7295 11.3861L26.4848 11.8222C26.6157 11.8977 26.7136 11.9979 26.7786 12.1227C26.8436 12.2475 26.8616 12.3759 26.8326 12.508C26.8074 12.6557 26.7396 12.7771 26.6291 12.8725C26.5188 12.9674 26.3981 13.0134 26.2668 13.0105L25.3732 12.9981L25.1425 14.0352C25.1054 14.1981 25.0363 14.3329 24.9351 14.4398C24.8339 14.5466 24.7153 14.6052 24.5795 14.6156C24.4277 14.6296 24.2879 14.5974 24.1602 14.519C24.0325 14.4406 23.9489 14.3311 23.9096 14.1903L23.6243 13.3096ZM24.099 12.4873C24.248 12.5733 24.4039 12.5945 24.5666 12.5509C24.7293 12.5073 24.8537 12.411 24.9397 12.2621C25.0257 12.1131 25.0469 11.9572 25.0033 11.7945C24.9597 11.6318 24.8634 11.5074 24.7145 11.4214C24.5655 11.3354 24.4095 11.3143 24.2466 11.3583C24.0836 11.4023 23.9592 11.4986 23.8734 11.6472C23.7877 11.7958 23.7666 11.9515 23.8102 12.1142C23.8538 12.2769 23.9498 12.4017 24.0984 12.4885M17.5487 16.9505C17.4603 17.5117 17.1501 17.9032 16.6182 18.1247C16.0863 18.3463 15.5552 18.304 15.0247 17.9977C14.7664 17.8486 14.5678 17.6346 14.429 17.3559C14.2904 17.0777 14.2309 16.7744 14.2507 16.446C13.6215 16.1187 13.2162 15.6219 13.0347 14.9556C12.853 14.2897 12.9495 13.6576 13.3242 13.0594C13.1338 12.7908 13.0378 12.489 13.0362 12.154C13.0346 11.8189 13.1242 11.4944 13.3049 11.1804C13.5927 10.6819 14.0378 10.4253 14.6401 10.4107C15.2424 10.3961 15.727 10.6258 16.0938 11.0999L16.6774 11.848C17.0056 11.5703 17.3793 11.4053 17.7987 11.3528C18.2175 11.3004 18.6152 11.3702 18.9921 11.5621L19.6632 10.3998L20.1742 10.6948L19.4884 11.8826C19.8767 12.1693 20.1332 12.5438 20.258 13.006C20.3828 13.4681 20.3495 13.9432 20.1581 14.4311L21.339 15.1129L21.0439 15.6239L19.8827 14.9535C19.6568 15.3004 19.3464 15.5544 18.9516 15.7155C18.5567 15.8766 18.1461 15.9229 17.7197 15.8543L17.5487 16.9505ZM14.3799 15.7607C14.4926 15.4793 14.6471 15.2144 14.8434 14.9659C15.0398 14.7174 15.266 14.4887 15.5221 14.2798C15.2175 14.2446 14.9173 14.1632 14.6215 14.0355C14.3256 13.9078 14.0534 13.7445 13.8049 13.5456C13.5892 13.9707 13.5372 14.3919 13.649 14.809C13.7608 15.2262 14.0044 15.5434 14.3799 15.7607ZM14.5362 13.2271C14.8888 13.4307 15.2757 13.5681 15.697 13.6394C16.1181 13.7111 16.6223 13.7229 17.2094 13.6749L15.6189 11.5571C15.3749 11.233 15.0692 11.0673 14.7018 11.06C14.3344 11.0526 14.0587 11.2084 13.8747 11.5271C13.7089 11.8143 13.6875 12.1171 13.8106 12.4355C13.9334 12.7544 14.1756 13.0182 14.5371 13.2269M15.3581 17.4203C15.6803 17.6063 16.005 17.6396 16.3322 17.52C16.6594 17.4004 16.8459 17.1778 16.8918 16.8522L17.314 14.0633C16.784 14.286 16.3434 14.5335 15.9921 14.806C15.6407 15.0785 15.3695 15.3802 15.1784 15.7113C14.9735 16.0662 14.8877 16.4024 14.921 16.7198C14.9541 17.0377 15.0998 17.2712 15.3581 17.4203ZM17.8144 15.1875C18.1377 15.2258 18.4461 15.177 18.7396 15.0411C19.0332 14.9052 19.2599 14.6986 19.42 14.4215C19.6404 14.0396 19.6982 13.6377 19.5933 13.2158C19.4884 12.7939 19.2461 12.4733 18.8666 12.2542C18.5675 12.0815 18.2554 12.0091 17.9303 12.037C17.6052 12.0649 17.3253 12.1851 17.0907 12.3976L18.038 13.6667L17.8144 15.1875Z" fill="#42C92C"/>
</g>
<path d="M51.6613 16.92V21.464H58.9893V25.688H51.6613V30.616H59.9493V35H46.1893V12.536H59.9493V16.92H51.6613ZM62.4138 26.072C62.4138 24.216 62.7872 22.5947 63.5338 21.208C64.3018 19.8213 65.3578 18.7547 66.7018 18.008C68.0672 17.2613 69.6245 16.888 71.3738 16.888C73.6138 16.888 75.4805 17.4747 76.9738 18.648C78.4885 19.8213 79.4805 21.4747 79.9498 23.608H74.1258C73.6352 22.2427 72.6858 21.56 71.2778 21.56C70.2752 21.56 69.4752 21.9547 68.8778 22.744C68.2805 23.512 67.9818 24.6213 67.9818 26.072C67.9818 27.5227 68.2805 28.6427 68.8778 29.432C69.4752 30.2 70.2752 30.584 71.2778 30.584C72.6858 30.584 73.6352 29.9013 74.1258 28.536H79.9498C79.4805 30.6267 78.4885 32.2693 76.9738 33.464C75.4592 34.6587 73.5925 35.256 71.3738 35.256C69.6245 35.256 68.0672 34.8827 66.7018 34.136C65.3578 33.3893 64.3018 32.3227 63.5338 30.936C62.7872 29.5493 62.4138 27.928 62.4138 26.072ZM93.8528 16.952C95.9008 16.952 97.5435 17.6347 98.7808 19C100.018 20.344 100.637 22.2 100.637 24.568V35H95.1968V25.304C95.1968 24.1093 94.8875 23.1813 94.2688 22.52C93.6502 21.8587 92.8182 21.528 91.7728 21.528C90.7275 21.528 89.8955 21.8587 89.2768 22.52C88.6582 23.1813 88.3488 24.1093 88.3488 25.304V35H82.8768V11.32H88.3488V19.544C88.9035 18.7547 89.6608 18.1253 90.6208 17.656C91.5808 17.1867 92.6582 16.952 93.8528 16.952ZM112.567 35.256C110.818 35.256 109.239 34.8827 107.831 34.136C106.445 33.3893 105.346 32.3227 104.535 30.936C103.746 29.5493 103.351 27.928 103.351 26.072C103.351 24.2373 103.757 22.6267 104.567 21.24C105.378 19.832 106.487 18.7547 107.895 18.008C109.303 17.2613 110.882 16.888 112.631 16.888C114.381 16.888 115.959 17.2613 117.367 18.008C118.775 18.7547 119.885 19.832 120.695 21.24C121.506 22.6267 121.911 24.2373 121.911 26.072C121.911 27.9067 121.495 29.528 120.663 30.936C119.853 32.3227 118.733 33.3893 117.303 34.136C115.895 34.8827 114.317 35.256 112.567 35.256ZM112.567 30.52C113.613 30.52 114.498 30.136 115.223 29.368C115.97 28.6 116.343 27.5013 116.343 26.072C116.343 24.6427 115.981 23.544 115.255 22.776C114.551 22.008 113.677 21.624 112.631 21.624C111.565 21.624 110.679 22.008 109.975 22.776C109.271 23.5227 108.919 24.6213 108.919 26.072C108.919 27.5013 109.261 28.6 109.943 29.368C110.647 30.136 111.522 30.52 112.567 30.52ZM140.974 12.536V16.92H135.022V35H129.55V16.92H123.598V12.536H140.974ZM149.193 20.12C149.833 19.1387 150.633 18.3707 151.593 17.816C152.553 17.24 153.619 16.952 154.793 16.952V22.744H153.289C151.923 22.744 150.899 23.0427 150.217 23.64C149.534 24.216 149.193 25.24 149.193 26.712V35H143.721V17.144H149.193V20.12ZM156.32 26.04C156.32 24.2053 156.661 22.5947 157.344 21.208C158.048 19.8213 158.997 18.7547 160.192 18.008C161.387 17.2613 162.72 16.888 164.192 16.888C165.451 16.888 166.549 17.144 167.488 17.656C168.448 18.168 169.184 18.84 169.696 19.672V17.144H175.168V35H169.696V32.472C169.163 33.304 168.416 33.976 167.456 34.488C166.517 35 165.419 35.256 164.16 35.256C162.709 35.256 161.387 34.8827 160.192 34.136C158.997 33.368 158.048 32.2907 157.344 30.904C156.661 29.496 156.32 27.8747 156.32 26.04ZM169.696 26.072C169.696 24.7067 169.312 23.6293 168.544 22.84C167.797 22.0507 166.88 21.656 165.792 21.656C164.704 21.656 163.776 22.0507 163.008 22.84C162.261 23.608 161.888 24.6747 161.888 26.04C161.888 27.4053 162.261 28.4933 163.008 29.304C163.776 30.0933 164.704 30.488 165.792 30.488C166.88 30.488 167.797 30.0933 168.544 29.304C169.312 28.5147 169.696 27.4373 169.696 26.072ZM178.039 26.072C178.039 24.216 178.412 22.5947 179.159 21.208C179.927 19.8213 180.983 18.7547 182.327 18.008C183.692 17.2613 185.249 16.888 186.999 16.888C189.239 16.888 191.105 17.4747 192.599 18.648C194.113 19.8213 195.105 21.4747 195.575 23.608H189.751C189.26 22.2427 188.311 21.56 186.903 21.56C185.9 21.56 185.1 21.9547 184.503 22.744C183.905 23.512 183.607 24.6213 183.607 26.072C183.607 27.5227 183.905 28.6427 184.503 29.432C185.1 30.2 185.9 30.584 186.903 30.584C188.311 30.584 189.26 29.9013 189.751 28.536H195.575C195.105 30.6267 194.113 32.2693 192.599 33.464C191.084 34.6587 189.217 35.256 186.999 35.256C185.249 35.256 183.692 34.8827 182.327 34.136C180.983 33.3893 179.927 32.3227 179.159 30.936C178.412 29.5493 178.039 27.928 178.039 26.072ZM209.414 35L203.974 27.512V35H198.502V11.32H203.974V24.408L209.382 17.144H216.134L208.71 26.104L216.198 35H209.414Z" fill="black"/>
<defs>
<clipPath id="clip0_171_293">
<rect width="21.3364" height="21.3364" fill="white" transform="translate(16.8071 16.4395) rotate(-5.8446)"/>
</clipPath>
<clipPath id="clip1_171_293">
<rect width="21.3364" height="21.3364" fill="white" transform="translate(0 35.5098) rotate(-61.8446)"/>
</clipPath>
<clipPath id="clip2_171_293">
<rect width="16.0023" height="16.0023" fill="white" transform="translate(16.0515 2.42236) rotate(30)"/>
</clipPath>
</defs>
</svg>
