<svg width="411" height="274" viewBox="0 0 411 274" fill="none" xmlns="http://www.w3.org/2000/svg">
<g clip-path="url(#clip0_171_1059)">
<path d="M379.441 74.9886C372.317 63.6559 363.516 53.4138 352.852 45.0129C316.19 16.1333 261.336 13.5742 218.427 28.2825C205.747 32.6281 193.641 38.8096 183.289 47.3967C175.765 53.6385 169.321 61.0584 161.819 67.3275C153.939 73.9035 144.195 74.057 134.298 73.509C120.05 72.7198 105.837 71.5161 91.6584 69.8976C79.3065 68.4838 67.6724 66.1712 55.4356 69.5798C34.776 75.3502 18.4018 93.3466 12.0559 113.513C4.10991 138.842 9.54607 166.735 20.4842 190.923C24.2708 199.297 28.8192 207.473 30.792 216.482C32.8415 225.847 36.979 235.416 43.944 242.37C52.0818 250.464 64.768 253.291 75.7773 255.379C97.0781 259.434 118.993 257.193 139.893 252.091C159.621 247.291 179.727 238.994 200.486 238.852C223.776 238.698 245.92 248.217 268.81 252.513C289.295 256.349 310.486 256.157 330.986 252.513C349.586 249.225 369.894 243.953 383.534 230.045C419.603 193.296 407.411 131.619 387.513 89.9544C385.115 84.8134 382.419 79.8163 379.441 74.9886Z" fill="#92E3A9"/>
<path opacity="0.7" d="M379.441 74.9886C372.317 63.6559 363.516 53.4138 352.852 45.0129C316.19 16.1333 261.336 13.5742 218.427 28.2825C205.747 32.6281 193.641 38.8096 183.289 47.3967C175.765 53.6385 169.321 61.0584 161.819 67.3275C153.939 73.9035 144.195 74.057 134.298 73.509C120.05 72.7198 105.837 71.5161 91.6584 69.8976C79.3065 68.4838 67.6724 66.1712 55.4356 69.5798C34.776 75.3502 18.4018 93.3466 12.0559 113.513C4.10991 138.842 9.54607 166.735 20.4842 190.923C24.2708 199.297 28.8192 207.473 30.792 216.482C32.8415 225.847 36.979 235.416 43.944 242.37C52.0818 250.464 64.768 253.291 75.7773 255.379C97.0781 259.434 118.993 257.193 139.893 252.091C159.621 247.291 179.727 238.994 200.486 238.852C223.776 238.698 245.92 248.217 268.81 252.513C289.295 256.349 310.486 256.157 330.986 252.513C349.586 249.225 369.894 243.953 383.534 230.045C419.603 193.296 407.411 131.619 387.513 89.9544C385.115 84.8134 382.419 79.8163 379.441 74.9886Z" fill="white"/>
<path opacity="0.3" d="M242.024 14.2479C242.024 14.2479 237.887 7.48009 231.492 7.85273C225.097 8.22537 222.844 12.3463 220.965 15.3439C219.085 18.3415 218.334 16.4673 213.446 14.9658C208.558 13.4643 206.322 16.0947 205.171 18.7251C204.021 21.3555 204.421 19.4758 199.911 18.7251C195.401 17.9743 195.28 20.665 192.387 22.1117C190.03 23.2899 189.526 23.3392 186.907 22.6597C183.657 21.7829 182.594 22.5117 181.843 24.0187H258.136C258.136 24.0187 256.689 17.9907 253.302 16.4947C249.916 14.9987 245.406 17.9853 242.024 14.2479Z" stroke="black" stroke-miterlimit="10"/>
<path opacity="0.3" d="M107.512 29.2958C107.512 29.2958 105.216 25.5311 101.649 25.7558C98.0811 25.9804 96.8372 28.2656 95.7905 29.9425C94.7438 31.6194 94.3273 30.5672 91.6038 29.7342C88.8802 28.9013 87.6308 30.359 87.0006 31.8276C86.3704 33.2962 86.5841 32.2441 84.0688 31.8276C81.5534 31.4111 81.4986 32.9236 79.8875 33.7072C78.5723 34.3648 78.2928 34.3922 76.8461 33.9977C75.0377 33.51 74.4459 33.9155 74.0239 34.7539H116.477C116.477 34.7539 115.672 31.4056 113.787 30.5672C111.902 29.7288 109.392 31.3892 107.512 29.2958Z" stroke="black" stroke-miterlimit="10"/>
<path opacity="0.3" d="M394.231 72.3635C394.231 72.3635 393.031 70.4017 391.179 70.5113C389.327 70.6209 388.675 71.821 388.127 72.7033C387.579 73.5855 387.365 73.0266 385.935 72.5937C385.707 72.4938 385.461 72.4432 385.212 72.4452C384.963 72.4472 384.718 72.5017 384.492 72.6052C384.266 72.7087 384.064 72.8588 383.9 73.0457C383.736 73.2326 383.613 73.452 383.54 73.6897C383.211 74.4514 383.321 73.9089 382.011 73.6897C380.701 73.4705 380.668 74.2377 379.819 74.6706C379.589 74.8272 379.323 74.923 379.046 74.9488C378.769 74.9747 378.49 74.9299 378.235 74.8185C377.293 74.5665 376.986 74.7802 376.767 75.2131H398.878C398.878 75.2131 398.462 73.4705 397.481 73.0211C396.5 72.5717 395.212 73.4321 394.231 72.3635Z" stroke="black" stroke-miterlimit="10"/>
<path opacity="0.3" d="M253.938 31.4826C253.938 31.4826 252.738 29.5208 250.886 29.6304C249.033 29.74 248.376 30.9346 247.833 31.8224C247.291 32.7102 247.066 32.1457 245.641 31.7128C245.413 31.612 245.166 31.5607 244.917 31.5622C244.668 31.5637 244.422 31.618 244.195 31.7216C243.968 31.8251 243.766 31.9756 243.601 32.163C243.437 32.3504 243.314 32.5705 243.241 32.8088C242.918 33.5705 243.022 33.0225 241.718 32.8088C240.413 32.5951 240.375 33.3568 239.526 33.7897C239.296 33.9464 239.03 34.0421 238.753 34.068C238.476 34.0939 238.197 34.049 237.942 33.9377C236.999 33.6856 236.692 33.8993 236.473 34.3322H258.585C258.585 34.3322 258.168 32.5896 257.188 32.1402C256.207 31.6909 254.919 32.5732 253.938 31.4826Z" stroke="black" stroke-miterlimit="10"/>
<g opacity="0.3">
<path d="M14.2424 202.853H31.5812V46.0593H77.1857V120.686H86.9839V213.408H98.2947V75.0047H119.398V18.9224H153.319V122.193H166.137V81.1149H194.781V90.1569H219.277V212.273H229.075V190.035H255.839V211.895H268.651V101.84H311.993V205.111H324.432V61.1348H339.508V34.7541H347.048V19.6786H359.11V117.294H378.706V210.388H393.782" stroke="black" stroke-miterlimit="10"/>
<path d="M77.1856 41.1602H31.5811V46.0593H77.1856V41.1602Z" stroke="black" stroke-miterlimit="10"/>
<path d="M119.398 75.0049H98.1631V77.4873H119.398V75.0049Z" stroke="black" stroke-miterlimit="10"/>
<path d="M153.319 18.9224H119.3V21.3336H153.319V18.9224Z" stroke="black" stroke-miterlimit="10"/>
<path d="M173.787 75.9912H168.833V81.1095H173.787V75.9912Z" stroke="black" stroke-miterlimit="10"/>
<path d="M186.665 78.1392H184.188V81.1093H186.665V78.1392Z" stroke="black" stroke-miterlimit="10"/>
<path d="M219.359 90.1567H194.781V93.1598H219.359V90.1567Z" stroke="black" stroke-miterlimit="10"/>
<path d="M311.987 99.6045H268.651V101.846H311.987V99.6045Z" stroke="black" stroke-miterlimit="10"/>
<path d="M296.967 95.1436H279.792V99.6043H296.967V95.1436Z" stroke="black" stroke-miterlimit="10"/>
<path d="M293.328 95.3081V91.1816H305.877V99.44" stroke="black" stroke-miterlimit="10"/>
<path d="M210.624 88.9237V55.5615H250.343V83.2081H264.004V36.1787H307.855V93.0556H321.523" stroke="black" stroke-miterlimit="10"/>
<path d="M182.024 72.4014V35.543H155.013" stroke="black" stroke-miterlimit="10"/>
<path d="M96.8645 81.619H87.965V55.8794H79.3833" stroke="black" stroke-miterlimit="10"/>
<path d="M30.1345 74.6265H22.8242V174.719" stroke="black" stroke-miterlimit="10"/>
<path d="M334.866 56.1976V44.1196H338.68" stroke="black" stroke-miterlimit="10"/>
<path d="M360.606 44.437H374.268V94.9626H397.464V153.429" stroke="black" stroke-miterlimit="10"/>
<path d="M125.377 26.0078H121.968V32.6825H125.377V26.0078Z" stroke="black" stroke-miterlimit="10"/>
<path d="M131.515 26.0078H128.106V32.6825H131.515V26.0078Z" stroke="black" stroke-miterlimit="10"/>
<path d="M137.652 26.0078H134.243V32.6825H137.652V26.0078Z" stroke="black" stroke-miterlimit="10"/>
<path d="M143.79 26.0078H140.381V32.6825H143.79V26.0078Z" stroke="black" stroke-miterlimit="10"/>
<path d="M149.927 26.0078H146.519V32.6825H149.927V26.0078Z" stroke="black" stroke-miterlimit="10"/>
<path d="M125.377 37.2915H121.968V43.9661H125.377V37.2915Z" stroke="black" stroke-miterlimit="10"/>
<path d="M131.515 37.2915H128.106V43.9661H131.515V37.2915Z" stroke="black" stroke-miterlimit="10"/>
<path d="M137.652 37.2915H134.243V43.9661H137.652V37.2915Z" stroke="black" stroke-miterlimit="10"/>
<path d="M143.79 37.2915H140.381V43.9661H143.79V37.2915Z" stroke="black" stroke-miterlimit="10"/>
<path d="M149.927 37.2915H146.519V43.9661H149.927V37.2915Z" stroke="black" stroke-miterlimit="10"/>
<path d="M125.377 48.5693H121.968V55.244H125.377V48.5693Z" stroke="black" stroke-miterlimit="10"/>
<path d="M131.515 48.5693H128.106V55.244H131.515V48.5693Z" stroke="black" stroke-miterlimit="10"/>
<path d="M137.652 48.5693H134.243V55.244H137.652V48.5693Z" stroke="black" stroke-miterlimit="10"/>
<path d="M143.79 48.5693H140.381V55.244H143.79V48.5693Z" stroke="black" stroke-miterlimit="10"/>
<path d="M149.927 48.5693H146.519V55.244H149.927V48.5693Z" stroke="black" stroke-miterlimit="10"/>
<path d="M125.377 59.8525H121.968V66.5272H125.377V59.8525Z" stroke="black" stroke-miterlimit="10"/>
<path d="M131.515 59.8525H128.106V66.5272H131.515V59.8525Z" stroke="black" stroke-miterlimit="10"/>
<path d="M137.652 59.8525H134.243V66.5272H137.652V59.8525Z" stroke="black" stroke-miterlimit="10"/>
<path d="M143.79 59.8525H140.381V66.5272H143.79V59.8525Z" stroke="black" stroke-miterlimit="10"/>
<path d="M149.927 59.8525H146.519V66.5272H149.927V59.8525Z" stroke="black" stroke-miterlimit="10"/>
<path d="M125.377 71.1304H121.968V77.805H125.377V71.1304Z" stroke="black" stroke-miterlimit="10"/>
<path d="M131.515 71.1304H128.106V77.805H131.515V71.1304Z" stroke="black" stroke-miterlimit="10"/>
<path d="M137.652 71.1304H134.243V77.805H137.652V71.1304Z" stroke="black" stroke-miterlimit="10"/>
<path d="M143.79 71.1304H140.381V77.805H143.79V71.1304Z" stroke="black" stroke-miterlimit="10"/>
<path d="M149.927 71.1304H146.519V77.805H149.927V71.1304Z" stroke="black" stroke-miterlimit="10"/>
<path d="M125.377 82.4136H121.968V89.0882H125.377V82.4136Z" stroke="black" stroke-miterlimit="10"/>
<path d="M131.515 82.4136H128.106V89.0882H131.515V82.4136Z" stroke="black" stroke-miterlimit="10"/>
<path d="M137.652 82.4136H134.243V89.0882H137.652V82.4136Z" stroke="black" stroke-miterlimit="10"/>
<path d="M143.79 82.4136H140.381V89.0882H143.79V82.4136Z" stroke="black" stroke-miterlimit="10"/>
<path d="M149.927 82.4136H146.519V89.0882H149.927V82.4136Z" stroke="black" stroke-miterlimit="10"/>
<path d="M104.449 82.4136H101.04V89.0882H104.449V82.4136Z" stroke="black" stroke-miterlimit="10"/>
<path d="M110.586 82.4136H107.178V89.0882H110.586V82.4136Z" stroke="black" stroke-miterlimit="10"/>
<path d="M116.724 82.4136H113.315V89.0882H116.724V82.4136Z" stroke="black" stroke-miterlimit="10"/>
<path d="M104.449 93.3735H101.04V100.048H104.449V93.3735Z" stroke="black" stroke-miterlimit="10"/>
<path d="M110.586 93.3735H107.178V100.048H110.586V93.3735Z" stroke="black" stroke-miterlimit="10"/>
<path d="M116.724 93.3735H113.315V100.048H116.724V93.3735Z" stroke="black" stroke-miterlimit="10"/>
<path d="M104.449 104.339H101.04V111.014H104.449V104.339Z" stroke="black" stroke-miterlimit="10"/>
<path d="M110.586 104.339H107.178V111.014H110.586V104.339Z" stroke="black" stroke-miterlimit="10"/>
<path d="M116.724 104.339H113.315V111.014H116.724V104.339Z" stroke="black" stroke-miterlimit="10"/>
<path d="M104.449 115.299H101.04V121.974H104.449V115.299Z" stroke="black" stroke-miterlimit="10"/>
<path d="M110.586 115.299H107.178V121.974H110.586V115.299Z" stroke="black" stroke-miterlimit="10"/>
<path d="M116.724 115.299H113.315V121.974H116.724V115.299Z" stroke="black" stroke-miterlimit="10"/>
<path d="M104.449 126.265H101.04V132.939H104.449V126.265Z" stroke="black" stroke-miterlimit="10"/>
<path d="M110.586 126.265H107.178V132.939H110.586V126.265Z" stroke="black" stroke-miterlimit="10"/>
<path d="M116.724 126.265H113.315V132.939H116.724V126.265Z" stroke="black" stroke-miterlimit="10"/>
<path d="M104.449 137.225H101.04V143.899H104.449V137.225Z" stroke="black" stroke-miterlimit="10"/>
<path d="M110.586 137.225H107.178V143.899H110.586V137.225Z" stroke="black" stroke-miterlimit="10"/>
<path d="M116.724 137.225H113.315V143.899H116.724V137.225Z" stroke="black" stroke-miterlimit="10"/>
<path d="M104.449 148.19H101.04V154.865H104.449V148.19Z" stroke="black" stroke-miterlimit="10"/>
<path d="M110.586 148.19H107.178V154.865H110.586V148.19Z" stroke="black" stroke-miterlimit="10"/>
<path d="M116.724 148.19H113.315V154.865H116.724V148.19Z" stroke="black" stroke-miterlimit="10"/>
<path d="M104.449 159.15H101.04V165.825H104.449V159.15Z" stroke="black" stroke-miterlimit="10"/>
<path d="M110.586 159.15H107.178V165.825H110.586V159.15Z" stroke="black" stroke-miterlimit="10"/>
<path d="M116.724 159.15H113.315V165.825H116.724V159.15Z" stroke="black" stroke-miterlimit="10"/>
<path d="M104.449 170.116H101.04V176.79H104.449V170.116Z" stroke="black" stroke-miterlimit="10"/>
<path d="M110.586 170.116H107.178V176.79H110.586V170.116Z" stroke="black" stroke-miterlimit="10"/>
<path d="M116.724 170.116H113.315V176.79H116.724V170.116Z" stroke="black" stroke-miterlimit="10"/>
<path d="M104.449 181.076H101.04V187.75H104.449V181.076Z" stroke="black" stroke-miterlimit="10"/>
<path d="M110.586 181.076H107.178V187.75H110.586V181.076Z" stroke="black" stroke-miterlimit="10"/>
<path d="M116.724 181.076H113.315V187.75H116.724V181.076Z" stroke="black" stroke-miterlimit="10"/>
<path d="M104.449 192.041H101.04V198.716H104.449V192.041Z" stroke="black" stroke-miterlimit="10"/>
<path d="M110.586 192.041H107.178V198.716H110.586V192.041Z" stroke="black" stroke-miterlimit="10"/>
<path d="M116.724 192.041H113.315V198.716H116.724V192.041Z" stroke="black" stroke-miterlimit="10"/>
<path d="M159.178 127.536H155.769V134.211H159.178V127.536Z" stroke="black" stroke-miterlimit="10"/>
<path d="M165.315 127.536H161.906V134.211H165.315V127.536Z" stroke="black" stroke-miterlimit="10"/>
<path d="M159.178 138.496H155.769V145.171H159.178V138.496Z" stroke="black" stroke-miterlimit="10"/>
<path d="M165.315 138.496H161.906V145.171H165.315V138.496Z" stroke="black" stroke-miterlimit="10"/>
<path d="M159.178 149.461H155.769V156.136H159.178V149.461Z" stroke="black" stroke-miterlimit="10"/>
<path d="M165.315 149.461H161.906V156.136H165.315V149.461Z" stroke="black" stroke-miterlimit="10"/>
<path d="M159.178 160.421H155.769V167.096H159.178V160.421Z" stroke="black" stroke-miterlimit="10"/>
<path d="M165.315 160.421H161.906V167.096H165.315V160.421Z" stroke="black" stroke-miterlimit="10"/>
<path d="M159.178 171.387H155.769V178.061H159.178V171.387Z" stroke="black" stroke-miterlimit="10"/>
<path d="M165.315 171.387H161.906V178.061H165.315V171.387Z" stroke="black" stroke-miterlimit="10"/>
<path d="M159.178 182.347H155.769V189.021H159.178V182.347Z" stroke="black" stroke-miterlimit="10"/>
<path d="M165.315 182.347H161.906V189.021H165.315V182.347Z" stroke="black" stroke-miterlimit="10"/>
<path d="M159.178 193.312H155.769V199.987H159.178V193.312Z" stroke="black" stroke-miterlimit="10"/>
<path d="M165.315 193.312H161.906V199.987H165.315V193.312Z" stroke="black" stroke-miterlimit="10"/>
<path d="M125.377 93.6914H121.968V100.366H125.377V93.6914Z" stroke="black" stroke-miterlimit="10"/>
<path d="M131.515 93.6914H128.106V100.366H131.515V93.6914Z" stroke="black" stroke-miterlimit="10"/>
<path d="M137.652 93.6914H134.243V100.366H137.652V93.6914Z" stroke="black" stroke-miterlimit="10"/>
<path d="M143.79 93.6914H140.381V100.366H143.79V93.6914Z" stroke="black" stroke-miterlimit="10"/>
<path d="M149.927 93.6914H146.519V100.366H149.927V93.6914Z" stroke="black" stroke-miterlimit="10"/>
<path d="M125.377 104.975H121.968V111.649H125.377V104.975Z" stroke="black" stroke-miterlimit="10"/>
<path d="M131.515 104.975H128.106V111.649H131.515V104.975Z" stroke="black" stroke-miterlimit="10"/>
<path d="M137.652 104.975H134.243V111.649H137.652V104.975Z" stroke="black" stroke-miterlimit="10"/>
<path d="M143.79 104.975H140.381V111.649H143.79V104.975Z" stroke="black" stroke-miterlimit="10"/>
<path d="M149.927 104.975H146.519V111.649H149.927V104.975Z" stroke="black" stroke-miterlimit="10"/>
<path d="M125.377 116.252H121.968V122.927H125.377V116.252Z" stroke="black" stroke-miterlimit="10"/>
<path d="M131.515 116.252H128.106V122.927H131.515V116.252Z" stroke="black" stroke-miterlimit="10"/>
<path d="M137.652 116.252H134.243V122.927H137.652V116.252Z" stroke="black" stroke-miterlimit="10"/>
<path d="M143.79 116.252H140.381V122.927H143.79V116.252Z" stroke="black" stroke-miterlimit="10"/>
<path d="M149.927 116.252H146.519V122.927H149.927V116.252Z" stroke="black" stroke-miterlimit="10"/>
<path d="M125.377 127.536H121.968V134.211H125.377V127.536Z" stroke="black" stroke-miterlimit="10"/>
<path d="M131.515 127.536H128.106V134.211H131.515V127.536Z" stroke="black" stroke-miterlimit="10"/>
<path d="M137.652 127.536H134.243V134.211H137.652V127.536Z" stroke="black" stroke-miterlimit="10"/>
<path d="M143.79 127.536H140.381V134.211H143.79V127.536Z" stroke="black" stroke-miterlimit="10"/>
<path d="M149.927 127.536H146.519V134.211H149.927V127.536Z" stroke="black" stroke-miterlimit="10"/>
<path d="M125.377 138.814H121.968V145.489H125.377V138.814Z" stroke="black" stroke-miterlimit="10"/>
<path d="M131.515 138.814H128.106V145.489H131.515V138.814Z" stroke="black" stroke-miterlimit="10"/>
<path d="M137.652 138.814H134.243V145.489H137.652V138.814Z" stroke="black" stroke-miterlimit="10"/>
<path d="M143.79 138.814H140.381V145.489H143.79V138.814Z" stroke="black" stroke-miterlimit="10"/>
<path d="M149.927 138.814H146.519V145.489H149.927V138.814Z" stroke="black" stroke-miterlimit="10"/>
<path d="M125.377 150.097H121.968V156.772H125.377V150.097Z" stroke="black" stroke-miterlimit="10"/>
<path d="M131.515 150.097H128.106V156.772H131.515V150.097Z" stroke="black" stroke-miterlimit="10"/>
<path d="M137.652 150.097H134.243V156.772H137.652V150.097Z" stroke="black" stroke-miterlimit="10"/>
<path d="M143.79 150.097H140.381V156.772H143.79V150.097Z" stroke="black" stroke-miterlimit="10"/>
<path d="M149.927 150.097H146.519V156.772H149.927V150.097Z" stroke="black" stroke-miterlimit="10"/>
<path d="M125.377 161.375H121.968V168.05H125.377V161.375Z" stroke="black" stroke-miterlimit="10"/>
<path d="M131.515 161.375H128.106V168.05H131.515V161.375Z" stroke="black" stroke-miterlimit="10"/>
<path d="M137.652 161.375H134.243V168.05H137.652V161.375Z" stroke="black" stroke-miterlimit="10"/>
<path d="M143.79 161.375H140.381V168.05H143.79V161.375Z" stroke="black" stroke-miterlimit="10"/>
<path d="M149.927 161.375H146.519V168.05H149.927V161.375Z" stroke="black" stroke-miterlimit="10"/>
<path d="M125.377 172.658H121.968V179.333H125.377V172.658Z" stroke="black" stroke-miterlimit="10"/>
<path d="M131.515 172.658H128.106V179.333H131.515V172.658Z" stroke="black" stroke-miterlimit="10"/>
<path d="M137.652 172.658H134.243V179.333H137.652V172.658Z" stroke="black" stroke-miterlimit="10"/>
<path d="M143.79 172.658H140.381V179.333H143.79V172.658Z" stroke="black" stroke-miterlimit="10"/>
<path d="M149.927 172.658H146.519V179.333H149.927V172.658Z" stroke="black" stroke-miterlimit="10"/>
<path d="M125.377 183.936H121.968V190.611H125.377V183.936Z" stroke="black" stroke-miterlimit="10"/>
<path d="M131.515 183.936H128.106V190.611H131.515V183.936Z" stroke="black" stroke-miterlimit="10"/>
<path d="M137.652 183.936H134.243V190.611H137.652V183.936Z" stroke="black" stroke-miterlimit="10"/>
<path d="M143.79 183.936H140.381V190.611H143.79V183.936Z" stroke="black" stroke-miterlimit="10"/>
<path d="M149.927 183.936H146.519V190.611H149.927V183.936Z" stroke="black" stroke-miterlimit="10"/>
<path d="M125.377 195.532H121.968V202.206H125.377V195.532Z" stroke="black" stroke-miterlimit="10"/>
<path d="M131.515 195.532H128.106V202.206H131.515V195.532Z" stroke="black" stroke-miterlimit="10"/>
<path d="M137.652 195.532H134.243V202.206H137.652V195.532Z" stroke="black" stroke-miterlimit="10"/>
<path d="M143.79 195.532H140.381V202.206H143.79V195.532Z" stroke="black" stroke-miterlimit="10"/>
<path d="M149.927 195.532H146.519V202.206H149.927V195.532Z" stroke="black" stroke-miterlimit="10"/>
<path d="M119.398 77.4873V213.49" stroke="black" stroke-miterlimit="10"/>
<path d="M171.535 83.8384V211.583" stroke="black" stroke-miterlimit="10"/>
<path d="M178.209 83.8384V211.583" stroke="black" stroke-miterlimit="10"/>
<path d="M184.884 83.8384V211.583" stroke="black" stroke-miterlimit="10"/>
<path d="M191.553 83.8384V211.583" stroke="black" stroke-miterlimit="10"/>
<path d="M198.228 96.5522V211.583" stroke="black" stroke-miterlimit="10"/>
<path d="M204.903 96.5522V211.583" stroke="black" stroke-miterlimit="10"/>
<path d="M211.577 96.5522V211.583" stroke="black" stroke-miterlimit="10"/>
<path d="M33.3127 53.3369H74.9388" stroke="black" stroke-miterlimit="10"/>
<path d="M33.3127 61.5952H74.9388" stroke="black" stroke-miterlimit="10"/>
<path d="M33.3127 69.8589H74.9388" stroke="black" stroke-miterlimit="10"/>
<path d="M33.3127 78.123H74.9388" stroke="black" stroke-miterlimit="10"/>
<path d="M33.3127 86.3813H74.9388" stroke="black" stroke-miterlimit="10"/>
<path d="M33.3127 94.645H74.9388" stroke="black" stroke-miterlimit="10"/>
<path d="M33.3127 102.909H74.9388" stroke="black" stroke-miterlimit="10"/>
<path d="M33.3127 111.167H74.9388" stroke="black" stroke-miterlimit="10"/>
<path d="M33.3127 119.431H74.9388" stroke="black" stroke-miterlimit="10"/>
<path d="M33.3127 127.695H74.9388" stroke="black" stroke-miterlimit="10"/>
<path d="M33.3127 135.953H74.9388" stroke="black" stroke-miterlimit="10"/>
<path d="M33.3127 144.217H74.9388" stroke="black" stroke-miterlimit="10"/>
<path d="M33.3127 152.476H74.9388" stroke="black" stroke-miterlimit="10"/>
<path d="M33.3127 160.739H74.9388" stroke="black" stroke-miterlimit="10"/>
<path d="M33.3127 169.003H74.9388" stroke="black" stroke-miterlimit="10"/>
<path d="M33.3127 177.262H74.9388" stroke="black" stroke-miterlimit="10"/>
<path d="M33.3127 185.525H74.9388" stroke="black" stroke-miterlimit="10"/>
<path d="M33.3127 193.789H74.9388" stroke="black" stroke-miterlimit="10"/>
<path d="M33.3127 202.047H74.9388" stroke="black" stroke-miterlimit="10"/>
<path d="M33.3127 210.312H74.9388" stroke="black" stroke-miterlimit="10"/>
<path d="M33.3127 218.57H74.9388" stroke="black" stroke-miterlimit="10"/>
<path d="M38.7107 40.9409V220.477" stroke="black" stroke-miterlimit="10"/>
<path d="M324.695 76.2158H333.913V80.6656H324.695" stroke="black" stroke-miterlimit="10"/>
<path d="M378.399 126.105H367.916V130.55H378.399" stroke="black" stroke-miterlimit="10"/>
<path d="M378.399 136.589H367.916V141.039H378.399" stroke="black" stroke-miterlimit="10"/>
<path d="M378.399 147.078H367.916V151.522H378.399" stroke="black" stroke-miterlimit="10"/>
<path d="M378.399 157.561H367.916V162.011H378.399" stroke="black" stroke-miterlimit="10"/>
<path d="M378.399 168.05H367.916V172.494H378.399" stroke="black" stroke-miterlimit="10"/>
<path d="M378.399 178.533H367.916V182.982H378.399" stroke="black" stroke-miterlimit="10"/>
<path d="M378.399 189.021H367.916V193.471H378.399" stroke="black" stroke-miterlimit="10"/>
<path d="M378.399 199.505H367.916V203.955H378.399" stroke="black" stroke-miterlimit="10"/>
<path d="M324.695 88.2881H333.913V92.7378H324.695" stroke="black" stroke-miterlimit="10"/>
<path d="M324.695 100.366H333.913V104.816H324.695" stroke="black" stroke-miterlimit="10"/>
<path d="M324.695 112.438H333.913V116.888H324.695" stroke="black" stroke-miterlimit="10"/>
<path d="M324.695 124.517H333.913V128.966H324.695" stroke="black" stroke-miterlimit="10"/>
<path d="M324.695 136.589H333.913V141.039H324.695" stroke="black" stroke-miterlimit="10"/>
<path d="M324.695 148.667H333.913V153.111H324.695" stroke="black" stroke-miterlimit="10"/>
<path d="M324.695 160.739H333.913V165.189H324.695" stroke="black" stroke-miterlimit="10"/>
<path d="M324.695 172.817H333.913V177.262H324.695" stroke="black" stroke-miterlimit="10"/>
<path d="M324.695 184.89H333.913V189.339H324.695" stroke="black" stroke-miterlimit="10"/>
<path d="M310.08 105.134H270.043V108.948H310.08V105.134Z" stroke="black" stroke-miterlimit="10"/>
<path d="M310.08 111.803H270.043V115.617H310.08V111.803Z" stroke="black" stroke-miterlimit="10"/>
<path d="M310.08 118.478H270.043V122.292H310.08V118.478Z" stroke="black" stroke-miterlimit="10"/>
<path d="M310.08 125.152H270.043V128.966H310.08V125.152Z" stroke="black" stroke-miterlimit="10"/>
<path d="M310.08 131.821H270.043V135.635H310.08V131.821Z" stroke="black" stroke-miterlimit="10"/>
<path d="M310.08 138.496H270.043V142.31H310.08V138.496Z" stroke="black" stroke-miterlimit="10"/>
<path d="M310.08 145.17H270.043V148.984H310.08V145.17Z" stroke="black" stroke-miterlimit="10"/>
<path d="M310.08 151.84H270.043V155.654H310.08V151.84Z" stroke="black" stroke-miterlimit="10"/>
<path d="M310.08 158.515H270.043V162.329H310.08V158.515Z" stroke="black" stroke-miterlimit="10"/>
<path d="M310.08 165.189H270.043V169.003H310.08V165.189Z" stroke="black" stroke-miterlimit="10"/>
<path d="M310.08 171.864H270.043V175.678H310.08V171.864Z" stroke="black" stroke-miterlimit="10"/>
<path d="M310.08 178.533H270.043V182.347H310.08V178.533Z" stroke="black" stroke-miterlimit="10"/>
<path d="M310.08 185.208H270.043V189.022H310.08V185.208Z" stroke="black" stroke-miterlimit="10"/>
<path d="M310.08 191.882H270.043V195.696H310.08V191.882Z" stroke="black" stroke-miterlimit="10"/>
<path d="M310.08 198.551H270.043V202.365H310.08V198.551Z" stroke="black" stroke-miterlimit="10"/>
<path d="M310.08 205.226H270.043V209.04H310.08V205.226Z" stroke="black" stroke-miterlimit="10"/>
<path d="M310.08 211.9H270.043V215.714H310.08V211.9Z" stroke="black" stroke-miterlimit="10"/>
<path d="M339.634 65.7271V213.172" stroke="black" stroke-miterlimit="10"/>
<path d="M347.892 37.7681V213.172" stroke="black" stroke-miterlimit="10"/>
<path d="M252.885 179.486H232.867V189.975H252.885V179.486Z" stroke="black" stroke-miterlimit="10"/>
<path d="M248.118 161.057H237.629V179.486H248.118V161.057Z" stroke="black" stroke-miterlimit="10"/>
<path d="M153.319 122.193V213.238" stroke="black" stroke-miterlimit="10"/>
<path d="M268.306 112.219H219.693" stroke="black" stroke-miterlimit="10"/>
<path d="M268.306 117.65H219.693" stroke="black" stroke-miterlimit="10"/>
<path d="M229.278 121.722H221.863V127.152H229.278V121.722Z" stroke="black" stroke-miterlimit="10"/>
<path d="M238.424 121.722H231.009V127.152H238.424V121.722Z" stroke="black" stroke-miterlimit="10"/>
<path d="M247.57 121.722H240.156V127.152H247.57V121.722Z" stroke="black" stroke-miterlimit="10"/>
<path d="M256.716 121.722H249.302V127.152H256.716V121.722Z" stroke="black" stroke-miterlimit="10"/>
<path d="M265.862 121.722H258.448V127.152H265.862V121.722Z" stroke="black" stroke-miterlimit="10"/>
<path d="M229.278 130.139H221.863V135.57H229.278V130.139Z" stroke="black" stroke-miterlimit="10"/>
<path d="M238.424 130.139H231.009V135.57H238.424V130.139Z" stroke="black" stroke-miterlimit="10"/>
<path d="M247.57 130.139H240.156V135.57H247.57V130.139Z" stroke="black" stroke-miterlimit="10"/>
<path d="M256.716 130.139H249.302V135.57H256.716V130.139Z" stroke="black" stroke-miterlimit="10"/>
<path d="M265.862 130.139H258.448V135.57H265.862V130.139Z" stroke="black" stroke-miterlimit="10"/>
<path d="M229.278 138.556H221.863V143.987H229.278V138.556Z" stroke="black" stroke-miterlimit="10"/>
<path d="M238.424 138.556H231.009V143.987H238.424V138.556Z" stroke="black" stroke-miterlimit="10"/>
<path d="M247.57 138.556H240.156V143.987H247.57V138.556Z" stroke="black" stroke-miterlimit="10"/>
<path d="M256.716 138.556H249.302V143.987H256.716V138.556Z" stroke="black" stroke-miterlimit="10"/>
<path d="M265.862 138.556H258.448V143.987H265.862V138.556Z" stroke="black" stroke-miterlimit="10"/>
<path d="M229.278 153.769H221.863V159.199H229.278V153.769Z" stroke="black" stroke-miterlimit="10"/>
<path d="M238.424 153.769H231.009V159.199H238.424V153.769Z" stroke="black" stroke-miterlimit="10"/>
<path d="M247.57 153.769H240.156V159.199H247.57V153.769Z" stroke="black" stroke-miterlimit="10"/>
<path d="M256.716 153.769H249.302V159.199H256.716V153.769Z" stroke="black" stroke-miterlimit="10"/>
<path d="M265.862 153.769H258.448V159.199H265.862V153.769Z" stroke="black" stroke-miterlimit="10"/>
</g>
<path d="M149.829 139.564H146.573V154.07H149.829V139.564Z" fill="black" stroke="black" stroke-miterlimit="10"/>
<path d="M269.934 139.564H266.679V154.07H269.934V139.564Z" fill="black" stroke="black" stroke-miterlimit="10"/>
<path d="M22.4954 154.706L21.3611 157.199H37.9984V156.646L28.7152 156.553L22.4954 154.706Z" fill="black" stroke="black" stroke-miterlimit="10"/>
<path d="M146.574 136.041V156.646H30.3209C28.6728 156.644 27.0374 156.357 25.4875 155.796L17.4758 152.892C17.0067 152.659 16.611 152.301 16.3322 151.857C16.0534 151.413 15.9023 150.901 15.8955 150.378C15.8887 149.854 16.0265 149.338 16.2937 148.887C16.5608 148.437 16.9471 148.068 17.41 147.823L29.6797 140.874C34.2864 138.414 39.4177 137.098 44.6401 137.038L146.574 136.041Z" fill="white" stroke="black" stroke-miterlimit="10"/>
<path d="M16.3413 151.862C16.6137 152.306 17.0073 152.664 17.4757 152.892L25.4874 155.807C27.0373 156.368 28.6727 156.655 30.3208 156.657H146.574V151.873L16.3413 151.862Z" fill="#92E3A9" stroke="black" stroke-miterlimit="10"/>
<path d="M54.9425 154.07H39.8945C39.556 154.07 39.2208 154.136 38.908 154.265C38.5952 154.394 38.3109 154.584 38.0716 154.823C37.8323 155.062 37.6426 155.347 37.5134 155.66C37.3843 155.972 37.3181 156.308 37.3189 156.646H57.5401C57.5401 156.306 57.4727 155.969 57.3419 155.655C57.2111 155.341 57.0194 155.056 56.7779 154.817C56.5365 154.578 56.2499 154.388 55.9349 154.26C55.6199 154.132 55.2826 154.068 54.9425 154.07Z" fill="black" stroke="black" stroke-miterlimit="10"/>
<path d="M41.3849 159.222C42.8074 159.222 43.9605 158.068 43.9605 156.646C43.9605 155.223 42.8074 154.07 41.3849 154.07C39.9625 154.07 38.8093 155.223 38.8093 156.646C38.8093 158.068 39.9625 159.222 41.3849 159.222Z" fill="black" stroke="black" stroke-miterlimit="10"/>
<path d="M57.5401 156.646C57.5401 156.137 57.3891 155.639 57.1061 155.215C56.823 154.791 56.4208 154.461 55.9502 154.266C55.4795 154.071 54.9617 154.02 54.462 154.12C53.9624 154.219 53.5035 154.465 53.1433 154.825C52.7831 155.185 52.5378 155.644 52.4384 156.143C52.339 156.643 52.39 157.161 52.585 157.632C52.7799 158.102 53.11 158.504 53.5336 158.787C53.9571 159.07 54.4551 159.222 54.9645 159.222C55.6476 159.222 56.3027 158.95 56.7857 158.467C57.2688 157.984 57.5401 157.329 57.5401 156.646Z" fill="black" stroke="black" stroke-miterlimit="10"/>
<path d="M135.866 154.07H120.818C120.134 154.07 119.479 154.342 118.996 154.825C118.513 155.308 118.242 155.963 118.242 156.646H138.441C138.442 156.307 138.376 155.972 138.247 155.659C138.117 155.347 137.928 155.062 137.688 154.823C137.449 154.584 137.165 154.394 136.852 154.265C136.539 154.136 136.204 154.07 135.866 154.07Z" fill="black" stroke="black" stroke-miterlimit="10"/>
<path d="M122.314 159.222C123.736 159.222 124.889 158.068 124.889 156.646C124.889 155.223 123.736 154.07 122.314 154.07C120.891 154.07 119.738 155.223 119.738 156.646C119.738 158.068 120.891 159.222 122.314 159.222Z" fill="black" stroke="black" stroke-miterlimit="10"/>
<path d="M135.866 159.222C137.288 159.222 138.441 158.068 138.441 156.646C138.441 155.223 137.288 154.07 135.866 154.07C134.443 154.07 133.29 155.223 133.29 156.646C133.29 158.068 134.443 159.222 135.866 159.222Z" fill="black" stroke="black" stroke-miterlimit="10"/>
<path d="M146.574 149.056V141.461H49.5174L36.2339 149.056H146.574Z" fill="#92E3A9" stroke="black" stroke-miterlimit="10"/>
<path d="M139.526 142.683H66.1929V147.834H139.526V142.683Z" fill="black" stroke="black" stroke-miterlimit="10"/>
<path d="M90.6558 143.362H83.9482V147.16H90.6558V143.362Z" fill="white" stroke="black" stroke-miterlimit="10"/>
<path d="M101.435 143.362H94.7273V147.16H101.435V143.362Z" fill="white" stroke="black" stroke-miterlimit="10"/>
<path d="M112.214 143.362H105.507V147.16H112.214V143.362Z" fill="white" stroke="black" stroke-miterlimit="10"/>
<path d="M122.993 143.362H116.286V147.16H122.993V143.362Z" fill="white" stroke="black" stroke-miterlimit="10"/>
<path d="M133.772 143.362H127.065V147.16H133.772V143.362Z" fill="white" stroke="black" stroke-miterlimit="10"/>
<path d="M36.2338 142.14L43.9606 138.644H34.9788C33.1487 139.233 31.3752 139.985 29.6797 140.891L24.4956 143.795L31.2196 142.699L36.2338 142.14Z" fill="black" stroke="black" stroke-miterlimit="10"/>
<path d="M34.979 138.644H146.574V136.068L44.6457 137.071C41.3626 137.105 38.1035 137.635 34.979 138.644Z" fill="#D9D9D9" stroke="black" stroke-miterlimit="10"/>
<path d="M64.4723 153.489H62.4009C61.8737 153.488 61.3686 153.278 60.9959 152.905C60.6231 152.532 60.4131 152.027 60.4116 151.5V142.184C60.4116 141.656 60.621 141.15 60.9939 140.776C61.3668 140.402 61.8728 140.191 62.4009 140.189H64.4723C65.0004 140.191 65.5063 140.402 65.8792 140.776C66.2521 141.15 66.4615 141.656 66.4615 142.184V151.5C66.4601 152.027 66.2501 152.532 65.8773 152.905C65.5046 153.278 64.9994 153.488 64.4723 153.489ZM62.4009 140.579C61.9808 140.579 61.578 140.745 61.281 141.042C60.984 141.339 60.8171 141.742 60.8171 142.162V151.478C60.8186 151.898 60.9859 152.3 61.2826 152.597C61.5793 152.893 61.9813 153.061 62.4009 153.062H64.4723C64.8919 153.061 65.2939 152.893 65.5906 152.597C65.8873 152.3 66.0546 151.898 66.056 151.478V142.162C66.056 141.742 65.8892 141.339 65.5922 141.042C65.2952 140.745 64.8923 140.579 64.4723 140.579H62.4009Z" fill="white" stroke="black" stroke-miterlimit="10"/>
<path d="M64.8176 143.362H62.0557V147.834H64.8176V143.362Z" fill="white" stroke="black" stroke-miterlimit="10"/>
<path d="M143.384 153.489H141.313C140.786 153.488 140.28 153.278 139.908 152.905C139.535 152.532 139.325 152.027 139.323 151.5V142.184C139.323 141.656 139.533 141.15 139.906 140.776C140.279 140.402 140.785 140.191 141.313 140.189H143.384C143.646 140.189 143.905 140.241 144.147 140.341C144.388 140.442 144.608 140.589 144.793 140.774C144.977 140.959 145.124 141.179 145.224 141.421C145.323 141.663 145.374 141.922 145.373 142.184V151.5C145.373 152.028 145.164 152.534 144.791 152.907C144.418 153.28 143.912 153.489 143.384 153.489ZM141.313 140.579C140.893 140.579 140.49 140.745 140.193 141.042C139.896 141.339 139.729 141.742 139.729 142.162V151.478C139.73 151.898 139.898 152.3 140.194 152.597C140.491 152.893 140.893 153.061 141.313 153.062H143.384C143.804 153.062 144.207 152.895 144.504 152.598C144.801 152.301 144.968 151.898 144.968 151.478V142.162C144.968 141.742 144.801 141.339 144.504 141.042C144.207 140.745 143.804 140.579 143.384 140.579H141.313Z" fill="white" stroke="black" stroke-miterlimit="10"/>
<path d="M143.729 143.362H140.968V147.834H143.729V143.362Z" fill="white" stroke="black" stroke-miterlimit="10"/>
<path d="M52.3669 143.362H49.605V147.834H52.3669V143.362Z" fill="white" stroke="black" stroke-miterlimit="10"/>
<path d="M394.007 154.706L395.141 157.199H378.509V156.646L387.787 156.553L394.007 154.706Z" fill="black" stroke="black" stroke-miterlimit="10"/>
<path d="M269.928 136.041V156.646H386.181C387.831 156.644 389.468 156.357 391.02 155.796L399.032 152.892C399.499 152.657 399.893 152.299 400.171 151.855C400.448 151.412 400.599 150.901 400.606 150.377C400.612 149.854 400.475 149.34 400.209 148.889C399.943 148.439 399.559 148.07 399.098 147.823L386.828 140.874C382.221 138.414 377.09 137.098 371.867 137.038L269.928 136.041Z" fill="white" stroke="black" stroke-miterlimit="10"/>
<path d="M269.928 151.862V156.646H386.187C387.835 156.644 389.47 156.357 391.02 155.796L399.032 152.892C399.497 152.665 399.89 152.312 400.166 151.873L269.928 151.862Z" fill="#92E3A9" stroke="black" stroke-miterlimit="10"/>
<path d="M361.565 154.07H376.613C376.951 154.07 377.286 154.137 377.599 154.266C377.911 154.396 378.195 154.586 378.434 154.825C378.673 155.064 378.863 155.348 378.992 155.66C379.122 155.973 379.189 156.308 379.189 156.646H358.989C358.989 155.963 359.261 155.308 359.744 154.825C360.227 154.342 360.882 154.07 361.565 154.07Z" fill="black" stroke="black" stroke-miterlimit="10"/>
<path d="M375.122 159.222C376.545 159.222 377.698 158.068 377.698 156.646C377.698 155.223 376.545 154.07 375.122 154.07C373.7 154.07 372.547 155.223 372.547 156.646C372.547 158.068 373.7 159.222 375.122 159.222Z" fill="black" stroke="black" stroke-miterlimit="10"/>
<path d="M361.565 159.222C362.987 159.222 364.14 158.068 364.14 156.646C364.14 155.223 362.987 154.07 361.565 154.07C360.142 154.07 358.989 155.223 358.989 156.646C358.989 158.068 360.142 159.222 361.565 159.222Z" fill="black" stroke="black" stroke-miterlimit="10"/>
<path d="M280.642 154.07H295.684C296.023 154.07 296.358 154.136 296.671 154.265C296.984 154.394 297.268 154.584 297.507 154.823C297.747 155.062 297.936 155.347 298.065 155.659C298.195 155.972 298.261 156.307 298.26 156.646H278.066C278.065 156.307 278.132 155.972 278.261 155.659C278.39 155.347 278.58 155.062 278.819 154.823C279.058 154.584 279.342 154.394 279.655 154.265C279.968 154.136 280.303 154.07 280.642 154.07Z" fill="black" stroke="black" stroke-miterlimit="10"/>
<path d="M294.194 159.222C295.616 159.222 296.769 158.068 296.769 156.646C296.769 155.223 295.616 154.07 294.194 154.07C292.771 154.07 291.618 155.223 291.618 156.646C291.618 158.068 292.771 159.222 294.194 159.222Z" fill="black" stroke="black" stroke-miterlimit="10"/>
<path d="M280.642 159.222C282.064 159.222 283.217 158.068 283.217 156.646C283.217 155.223 282.064 154.07 280.642 154.07C279.219 154.07 278.066 155.223 278.066 156.646C278.066 158.068 279.219 159.222 280.642 159.222Z" fill="black" stroke="black" stroke-miterlimit="10"/>
<path d="M269.928 149.056V141.461H366.99L380.274 149.056H269.928Z" fill="#92E3A9" stroke="black" stroke-miterlimit="10"/>
<path d="M276.981 147.834H350.314V142.683H276.981V147.834Z" fill="black" stroke="black" stroke-miterlimit="10"/>
<path d="M325.852 147.154H332.559V143.357H325.852V147.154Z" fill="white" stroke="black" stroke-miterlimit="10"/>
<path d="M315.073 147.154H321.78V143.357H315.073V147.154Z" fill="white" stroke="black" stroke-miterlimit="10"/>
<path d="M304.293 147.154H311.001V143.357H304.293V147.154Z" fill="white" stroke="black" stroke-miterlimit="10"/>
<path d="M293.514 147.154H300.222V143.357H293.514V147.154Z" fill="white" stroke="black" stroke-miterlimit="10"/>
<path d="M282.735 147.154H289.443V143.357H282.735V147.154Z" fill="white" stroke="black" stroke-miterlimit="10"/>
<path d="M380.274 142.14L372.547 138.644H381.529C383.358 139.234 385.132 139.986 386.828 140.891L392.006 143.823L385.288 142.727L380.274 142.14Z" fill="black" stroke="black" stroke-miterlimit="10"/>
<path d="M381.529 138.644H269.928V136.068L371.856 137.071C375.141 137.105 378.402 137.635 381.529 138.644Z" fill="#D9D9D9" stroke="black" stroke-miterlimit="10"/>
<path d="M354.107 153.489H352.035C351.508 153.488 351.003 153.278 350.63 152.905C350.257 152.532 350.047 152.027 350.046 151.5V142.184C350.046 141.656 350.255 141.15 350.628 140.776C351.001 140.402 351.507 140.191 352.035 140.189H354.107C354.635 140.191 355.141 140.402 355.514 140.776C355.886 141.15 356.096 141.656 356.096 142.184V151.5C356.094 152.027 355.884 152.532 355.512 152.905C355.139 153.278 354.634 153.488 354.107 153.489ZM352.035 140.579C351.615 140.579 351.212 140.745 350.915 141.042C350.618 141.339 350.451 141.742 350.451 142.162V151.478C350.453 151.898 350.62 152.3 350.917 152.597C351.214 152.893 351.616 153.061 352.035 153.062H354.107C354.526 153.061 354.928 152.893 355.225 152.597C355.522 152.3 355.689 151.898 355.69 151.478V142.162C355.69 141.742 355.523 141.339 355.226 141.042C354.929 140.745 354.527 140.579 354.107 140.579H352.035Z" fill="white" stroke="black" stroke-miterlimit="10"/>
<path d="M351.69 147.834H354.452V143.362H351.69V147.834Z" fill="white" stroke="black" stroke-miterlimit="10"/>
<path d="M275.189 153.489H273.123C272.595 153.489 272.089 153.28 271.715 152.907C271.341 152.534 271.13 152.028 271.128 151.5V142.184C271.128 141.655 271.339 141.148 271.713 140.774C272.087 140.4 272.594 140.189 273.123 140.189H275.189C275.718 140.189 276.225 140.4 276.6 140.774C276.974 141.148 277.184 141.655 277.184 142.184V151.5C277.182 152.028 276.972 152.534 276.598 152.907C276.224 153.28 275.717 153.489 275.189 153.489ZM273.123 140.579C272.915 140.578 272.708 140.618 272.515 140.698C272.323 140.777 272.147 140.893 272 141.04C271.852 141.188 271.735 141.362 271.655 141.555C271.575 141.747 271.534 141.954 271.534 142.162V151.478C271.535 151.899 271.703 152.302 272.001 152.598C272.299 152.895 272.703 153.062 273.123 153.062H275.189C275.61 153.062 276.013 152.895 276.311 152.598C276.609 152.302 276.777 151.899 276.778 151.478V142.162C276.778 141.954 276.737 141.747 276.657 141.555C276.577 141.362 276.46 141.188 276.312 141.04C276.165 140.893 275.99 140.777 275.797 140.698C275.604 140.618 275.398 140.578 275.189 140.579H273.123Z" fill="white" stroke="black" stroke-miterlimit="10"/>
<path d="M272.772 147.834H275.534V143.362H272.772V147.834Z" fill="white" stroke="black" stroke-miterlimit="10"/>
<path d="M364.14 147.834H366.902V143.362H364.14V147.834Z" fill="white" stroke="black" stroke-miterlimit="10"/>
<path d="M266.679 136.041H149.829V156.646H266.679V136.041Z" fill="white" stroke="black" stroke-miterlimit="10"/>
<path d="M266.679 151.862H149.829V156.646H266.679V151.862Z" fill="#92E3A9" stroke="black" stroke-miterlimit="10"/>
<path d="M266.679 141.466H149.829V149.056H266.679V141.466Z" fill="#92E3A9" stroke="black" stroke-miterlimit="10"/>
<path d="M260.267 142.683H157.386V147.834H260.267V142.683Z" fill="black" stroke="black" stroke-miterlimit="10"/>
<path d="M170.938 143.362H164.23V147.16H170.938V143.362Z" fill="white" stroke="black" stroke-miterlimit="10"/>
<path d="M181.722 143.362H175.015V147.16H181.722V143.362Z" fill="white" stroke="black" stroke-miterlimit="10"/>
<path d="M192.501 143.362H185.794V147.16H192.501V143.362Z" fill="white" stroke="black" stroke-miterlimit="10"/>
<path d="M203.281 143.362H196.573V147.16H203.281V143.362Z" fill="white" stroke="black" stroke-miterlimit="10"/>
<path d="M214.06 143.362H207.352V147.16H214.06V143.362Z" fill="white" stroke="black" stroke-miterlimit="10"/>
<path d="M224.653 143.362H217.945V147.16H224.653V143.362Z" fill="white" stroke="black" stroke-miterlimit="10"/>
<path d="M235.251 143.362H228.543V147.16H235.251V143.362Z" fill="white" stroke="black" stroke-miterlimit="10"/>
<path d="M245.844 143.362H239.136V147.16H245.844V143.362Z" fill="white" stroke="black" stroke-miterlimit="10"/>
<path d="M256.442 143.362H249.735V147.16H256.442V143.362Z" fill="white" stroke="black" stroke-miterlimit="10"/>
<path d="M155.599 153.489H153.528C153 153.489 152.494 153.28 152.121 152.907C151.748 152.534 151.539 152.028 151.539 151.5V142.184C151.538 141.922 151.589 141.663 151.688 141.421C151.788 141.179 151.934 140.959 152.119 140.774C152.304 140.589 152.524 140.442 152.765 140.341C153.007 140.241 153.266 140.189 153.528 140.189H155.599C156.127 140.191 156.633 140.402 157.006 140.776C157.379 141.15 157.589 141.656 157.589 142.184V151.5C157.587 152.027 157.377 152.532 157.004 152.905C156.632 153.278 156.126 153.488 155.599 153.489ZM153.528 140.579C153.108 140.579 152.705 140.745 152.408 141.042C152.111 141.339 151.944 141.742 151.944 142.162V151.478C151.944 151.898 152.111 152.301 152.408 152.598C152.705 152.895 153.108 153.062 153.528 153.062H155.599C156.019 153.061 156.421 152.893 156.718 152.597C157.014 152.3 157.182 151.898 157.183 151.478V142.162C157.183 141.742 157.016 141.339 156.719 141.042C156.422 140.745 156.019 140.579 155.599 140.579H153.528Z" fill="white" stroke="black" stroke-miterlimit="10"/>
<path d="M155.944 143.362H153.182V147.834H155.944V143.362Z" fill="white" stroke="black" stroke-miterlimit="10"/>
<path d="M264.136 153.489H262.054C261.527 153.488 261.021 153.278 260.649 152.905C260.276 152.532 260.066 152.027 260.064 151.5V142.184C260.064 141.656 260.274 141.15 260.647 140.776C261.02 140.402 261.526 140.191 262.054 140.189H264.136C264.398 140.189 264.657 140.241 264.899 140.341C265.14 140.442 265.36 140.589 265.545 140.774C265.729 140.959 265.876 141.179 265.975 141.421C266.075 141.663 266.126 141.922 266.125 142.184V151.5C266.125 152.028 265.916 152.534 265.543 152.907C265.17 153.28 264.664 153.489 264.136 153.489ZM262.065 140.579C261.645 140.579 261.242 140.745 260.945 141.042C260.648 141.339 260.481 141.742 260.481 142.162V151.478C260.482 151.898 260.65 152.3 260.946 152.597C261.243 152.893 261.645 153.061 262.065 153.062H264.136C264.556 153.062 264.959 152.895 265.256 152.598C265.553 152.301 265.72 151.898 265.72 151.478V142.162C265.72 141.742 265.553 141.339 265.256 141.042C264.959 140.745 264.556 140.579 264.136 140.579H262.065Z" fill="white" stroke="black" stroke-miterlimit="10"/>
<path d="M264.47 143.362H261.708V147.834H264.47V143.362Z" fill="white" stroke="black" stroke-miterlimit="10"/>
<path d="M175.519 154.07H160.471C160.132 154.07 159.797 154.136 159.484 154.265C159.172 154.394 158.887 154.584 158.648 154.823C158.409 155.062 158.219 155.347 158.09 155.659C157.961 155.972 157.895 156.307 157.895 156.646H178.1C178.1 156.307 178.033 155.972 177.903 155.659C177.774 155.346 177.583 155.062 177.344 154.823C177.104 154.584 176.819 154.394 176.506 154.265C176.193 154.136 175.858 154.07 175.519 154.07Z" fill="black" stroke="black" stroke-miterlimit="10"/>
<path d="M161.961 159.222C163.384 159.222 164.537 158.068 164.537 156.646C164.537 155.223 163.384 154.07 161.961 154.07C160.539 154.07 159.386 155.223 159.386 156.646C159.386 158.068 160.539 159.222 161.961 159.222Z" fill="black" stroke="black" stroke-miterlimit="10"/>
<path d="M175.519 159.222C176.941 159.222 178.095 158.068 178.095 156.646C178.095 155.223 176.941 154.07 175.519 154.07C174.097 154.07 172.943 155.223 172.943 156.646C172.943 158.068 174.097 159.222 175.519 159.222Z" fill="black" stroke="black" stroke-miterlimit="10"/>
<path d="M256.711 154.07H241.668C241.33 154.07 240.994 154.136 240.682 154.265C240.369 154.394 240.085 154.584 239.845 154.823C239.606 155.062 239.416 155.347 239.287 155.659C239.158 155.972 239.092 156.307 239.093 156.646H259.286C259.287 156.307 259.221 155.972 259.092 155.659C258.963 155.347 258.773 155.062 258.534 154.823C258.294 154.584 258.01 154.394 257.697 154.265C257.384 154.136 257.049 154.07 256.711 154.07Z" fill="black" stroke="black" stroke-miterlimit="10"/>
<path d="M243.159 159.222C244.581 159.222 245.734 158.068 245.734 156.646C245.734 155.223 244.581 154.07 243.159 154.07C241.736 154.07 240.583 155.223 240.583 156.646C240.583 158.068 241.736 159.222 243.159 159.222Z" fill="black" stroke="black" stroke-miterlimit="10"/>
<path d="M256.711 159.222C258.133 159.222 259.286 158.068 259.286 156.646C259.286 155.223 258.133 154.07 256.711 154.07C255.288 154.07 254.135 155.223 254.135 156.646C254.135 158.068 255.288 159.222 256.711 159.222Z" fill="black" stroke="black" stroke-miterlimit="10"/>
<path d="M266.679 136.041H149.829V138.617H266.679V136.041Z" fill="#D9D9D9" stroke="black" stroke-miterlimit="10"/>
<path d="M34.2937 224.368L36.9405 217.556C41.1769 206.66 48.6066 197.297 58.2557 190.696C67.9048 184.095 79.3233 180.562 91.0144 180.562C102.706 180.562 114.124 184.095 123.773 190.696C133.422 197.297 140.852 206.66 145.088 217.556L147.735 224.374V165.381H34.2992L34.2937 224.368ZM56.3343 188.682C54.4076 190.027 52.5596 191.482 50.7995 193.039V168.121H58.8386V187.038C57.9947 187.57 57.1563 188.112 56.3343 188.682ZM69.6233 181.695C66.8535 182.737 64.1646 183.983 61.5786 185.422V168.121H69.6233V181.695ZM72.3633 168.121H80.4024V178.747C77.6795 179.222 74.9932 179.886 72.3633 180.736V168.121ZM83.1424 178.325V168.121H91.1816V177.815H91.0172C88.3841 177.817 85.7537 177.987 83.1424 178.325ZM123.53 187.247C120.961 185.612 118.272 184.174 115.485 182.945V168.149H123.53V187.247ZM112.745 181.821C110.126 180.815 107.44 179.993 104.706 179.361V168.121H112.745V181.821ZM101.966 178.802C99.3074 178.322 96.6202 178.017 93.9216 177.887V168.121H101.966V178.802ZM126.27 189.099V168.121H134.309V195.949C131.832 193.437 129.143 191.146 126.27 189.099ZM144.995 210.684C142.817 206.467 140.15 202.519 137.049 198.924V168.121H144.995V210.684ZM37.0392 168.121H48.0595V195.636C43.6253 200.06 39.9056 205.146 37.0337 210.712L37.0392 168.121Z" fill="black"/>
<path d="M0.136963 165.381V185.827C3.25842 187.261 6.24588 188.97 9.06388 190.935C18.5482 197.521 25.8476 206.792 30.0249 217.556L32.6717 224.374V165.381H0.136963ZM8.46656 187.247C5.8973 185.612 3.20809 184.174 0.421923 182.945V168.149H8.46656V187.247ZM19.2457 195.949C16.7689 193.437 14.0792 191.146 11.2066 189.099V168.121H19.2457V195.949ZM29.9317 210.684C27.7532 206.467 25.0862 202.519 21.9857 198.924V168.121H29.9317V210.684Z" fill="black"/>
<path d="M149.631 224.368L152.278 217.556C156.515 206.66 163.944 197.297 173.593 190.696C183.242 184.095 194.661 180.562 206.352 180.562C218.043 180.562 229.462 184.095 239.111 190.696C248.76 197.297 256.19 206.66 260.426 217.556L263.073 224.374V165.381H149.637L149.631 224.368ZM171.672 188.682C169.744 190.029 167.895 191.483 166.132 193.039V168.121H174.176V187.038C173.332 187.57 172.494 188.112 171.672 188.682ZM184.955 181.695C182.188 182.739 179.501 183.984 176.916 185.422V168.121H184.955V181.695ZM187.695 168.121H195.74V178.747C193.016 179.222 190.327 179.887 187.695 180.736V168.121ZM198.48 178.325V168.121H206.519V177.815H206.349C203.718 177.817 201.09 177.987 198.48 178.325ZM238.868 187.247C236.298 185.612 233.609 184.174 230.823 182.945V168.149H238.868V187.247ZM228.083 181.821C225.464 180.816 222.777 179.994 220.044 179.361V168.121H228.083V181.821ZM217.304 178.802C214.645 178.323 211.958 178.017 209.259 177.887V168.121H217.304V178.802ZM241.608 189.099V168.121H249.647V195.949C247.169 193.439 244.479 191.147 241.608 189.099ZM260.333 210.684C258.154 206.467 255.487 202.519 252.387 198.924V168.121H260.333V210.684ZM152.377 168.121H163.397V195.636C158.966 200.062 155.249 205.147 152.377 210.712V168.121Z" fill="black"/>
<path d="M410.759 182.879C409.005 183.646 407.284 184.485 405.602 185.422V168.121H410.759V165.381H264.991V224.368L267.616 217.556C271.851 206.659 279.28 197.296 288.928 190.694C298.577 184.092 309.996 180.56 321.687 180.56C333.378 180.56 344.796 184.092 354.445 190.694C364.094 197.296 371.523 206.659 375.758 217.556L378.317 224.132V224.368L378.361 224.247L378.405 224.368V224.132L380.964 217.556C386.419 203.537 397.1 192.18 410.759 185.877V182.879ZM278.729 195.636C274.298 200.062 270.581 205.147 267.709 210.712V168.121H278.729V195.636ZM289.514 187.066C288.67 187.614 287.831 188.162 287.004 188.71C285.079 190.058 283.231 191.512 281.469 193.066V168.121H289.514V187.066ZM300.304 181.695C297.536 182.737 294.849 183.983 292.265 185.422V168.121H300.304V181.695ZM311.088 178.747C308.364 179.222 305.676 179.887 303.044 180.736V168.132H311.088V178.747ZM321.868 177.815H321.676C319.044 177.819 316.416 177.991 313.807 178.331V168.121H321.846L321.868 177.815ZM332.652 178.802C329.993 178.323 327.306 178.017 324.608 177.887V168.121H332.636L332.652 178.802ZM343.431 181.821C340.807 180.815 338.115 179.993 335.376 179.361V168.121H343.415L343.431 181.821ZM354.216 187.247C351.647 185.612 348.958 184.174 346.171 182.945V168.149H354.216V187.247ZM364.968 195.949C362.49 193.439 359.8 191.147 356.929 189.099V168.121H364.968V195.949ZM375.648 210.684C373.472 206.467 370.807 202.52 367.708 198.924V168.121H375.648V210.684ZM392.088 195.609C387.658 200.034 383.94 205.12 381.068 210.684V168.121H392.088V195.609ZM402.873 187.038C402.024 187.586 401.185 188.134 400.363 188.682C398.438 190.03 396.591 191.485 394.828 193.039V168.121H402.873V187.038Z" fill="black"/>
<path d="M41.8835 188.326H27.8437L24.8352 168.669H44.892L41.8835 188.326Z" fill="white" stroke="black" stroke-miterlimit="10"/>
<path d="M26.1778 177.448H43.5494L44.892 168.669H24.8352L26.1778 177.448Z" fill="black" stroke="black" stroke-miterlimit="10"/>
<path d="M41.6807 188.326H27.8438V273.825H41.6807V188.326Z" fill="white" stroke="black" stroke-miterlimit="10"/>
<path d="M44.8756 188.326H24.6489V198.223H44.8756V188.326Z" fill="white" stroke="black" stroke-miterlimit="10"/>
<path d="M156.991 188.326H142.957L139.948 168.669H160L156.991 188.326Z" fill="white" stroke="black" stroke-miterlimit="10"/>
<path d="M141.291 177.448H158.657L160 168.669H139.948L141.291 177.448Z" fill="black" stroke="black" stroke-miterlimit="10"/>
<path d="M156.794 188.326H142.957V273.825H156.794V188.326Z" fill="white" stroke="black" stroke-miterlimit="10"/>
<path d="M159.989 188.326H139.762V198.223H159.989V188.326Z" fill="white" stroke="black" stroke-miterlimit="10"/>
<path d="M272.104 188.326H258.064L255.056 168.669H275.112L272.104 188.326Z" fill="white" stroke="black" stroke-miterlimit="10"/>
<path d="M256.398 177.448H273.764L275.112 168.669H255.056L256.398 177.448Z" fill="black" stroke="black" stroke-miterlimit="10"/>
<path d="M271.901 188.326H258.064V273.825H271.901V188.326Z" fill="white" stroke="black" stroke-miterlimit="10"/>
<path d="M275.096 188.326H254.869V198.223H275.096V188.326Z" fill="white" stroke="black" stroke-miterlimit="10"/>
<path d="M387.211 188.326H373.177L370.168 168.669H390.22L387.211 188.326Z" fill="white" stroke="black" stroke-miterlimit="10"/>
<path d="M371.511 177.448H388.877L390.22 168.669H370.168L371.511 177.448Z" fill="black" stroke="black" stroke-miterlimit="10"/>
<path d="M387.014 188.326H373.177V273.825H387.014V188.326Z" fill="white" stroke="black" stroke-miterlimit="10"/>
<path d="M390.209 188.326H369.982V198.223H390.209V188.326Z" fill="white" stroke="black" stroke-miterlimit="10"/>
<path d="M410.759 159.446H0.515137V168.669H410.759V159.446Z" fill="white" stroke="black" stroke-miterlimit="10"/>
<path d="M410.759 159.446H0.515137V161.129H410.759V159.446Z" fill="black" stroke="black" stroke-miterlimit="10"/>
</g>
<defs>
<clipPath id="clip0_171_1059">
<rect width="411" height="274" fill="white"/>
</clipPath>
</defs>
</svg>
